<svg width="24" height="24" viewBox="0 0 24 24" fill="none" xmlns="http://www.w3.org/2000/svg">
<path opacity="0.08" d="M22 12C22 17.515 17.514 22 12 22C6.486 22 2 17.515 2 12C2 6.486 6.486 2 12 2C17.514 2 22 6.486 22 12Z" fill="#222531"/>
<path d="M16.2201 10.5575C16.2201 10.7485 16.1471 10.9405 16.0011 11.0865L12.5311 14.5735C12.3901 14.7145 12.1991 14.7935 11.9991 14.7935C11.8001 14.7935 11.6091 14.7145 11.4681 14.5735L7.99609 11.0865C7.70409 10.7935 7.70409 10.3195 7.99809 10.0265C8.29209 9.73448 8.76709 9.73548 9.05909 10.0285L11.9991 12.9815L14.9391 10.0285C15.2311 9.73548 15.7051 9.73448 15.9991 10.0265C16.1471 10.1725 16.2201 10.3655 16.2201 10.5575Z" fill="#222531"/>
</svg>
