<svg width="17" height="16" viewBox="0 0 17 16" fill="none" xmlns="http://www.w3.org/2000/svg">
<g clip-path="url(#clip0)">
<path d="M13.2541 4.92875C13.0874 3.18146 11.5796 2.59464 9.67559 2.42643L9.67731 0.00294436L8.20215 0.00202534L8.20052 2.36164C7.81273 2.36141 7.41632 2.36878 7.02248 2.37635L7.02442 0.00111558L5.55006 0L5.54775 2.4228C5.22837 2.42909 4.91472 2.43479 4.60889 2.43477L2.5741 2.42508L2.57334 4.0006C2.57334 4.0006 3.66271 3.98062 3.64458 4.00067C4.2421 4.00128 4.43632 4.34831 4.49267 4.64769L4.48769 11.2867C4.46133 11.4748 4.35058 11.7745 3.93311 11.7749C3.95198 11.7917 2.86079 11.7739 2.86079 11.7739L2.56641 13.5354L4.48611 13.5367C4.84336 13.5374 5.19486 13.5437 5.53994 13.5461L5.53878 15.9972L7.01235 15.9985L7.01407 13.5733C7.41867 13.582 7.81022 13.5855 8.19248 13.5854L8.19008 15.9994L9.66524 16.0003L9.66748 13.5536C12.1476 13.4131 13.8839 12.7896 14.1011 10.4608C14.2765 8.58565 13.395 7.74824 11.9874 7.40915C12.843 6.97427 13.3783 6.20731 13.2541 4.92875ZM11.1865 10.1682C11.186 11.9999 8.04977 11.7893 7.05001 11.7895L7.05275 8.54201C8.0528 8.54297 11.188 8.25772 11.1865 10.1682ZM10.5037 5.58591C10.5021 7.25239 7.88653 7.05602 7.05378 7.05548L7.05601 4.11012C7.88876 4.11066 10.5048 3.84774 10.5037 5.58591Z" fill="#F7931A"/>
</g>
<defs>
<clipPath id="clip0">
<rect width="16" height="16" fill="white" transform="translate(0.345703)"/>
</clipPath>
</defs>
</svg>
