<svg width="24" height="24" viewBox="0 0 24 24" fill="none" xmlns="http://www.w3.org/2000/svg">
<path d="M12.6385 1.79232C12.6235 2.14482 12.301 2.42982 11.9485 2.40732C11.5735 2.39232 11.296 2.06982 11.3335 1.71732C11.3485 1.36482 11.671 1.07982 12.0235 1.10232C12.376 1.11732 12.6535 1.43232 12.6385 1.79232ZM21.316 7.43232C21.001 7.59732 20.5885 7.46982 20.416 7.15482C20.251 6.83982 20.3785 6.44232 20.6935 6.27732C20.6935 6.27732 20.6935 6.27732 20.7085 6.27732C21.0235 6.11232 21.436 6.23982 21.6085 6.55482C21.766 6.89232 21.6385 7.28232 21.316 7.43232ZM20.6785 17.6548C20.3785 17.4673 20.2885 17.0548 20.476 16.7548C20.476 16.7548 20.476 16.7548 20.476 16.7398C20.6785 16.4398 21.091 16.3498 21.391 16.5523C21.691 16.7548 21.781 17.1523 21.5785 17.4523C21.391 17.7673 20.9785 17.8573 20.6785 17.6548ZM11.2885 22.2073C11.3035 21.8548 11.626 21.5698 11.9785 21.5923C12.3535 21.6073 12.631 21.9298 12.5935 22.2823C12.5785 22.6348 12.256 22.9198 11.9035 22.8973C11.551 22.8823 11.2735 22.5823 11.2885 22.2073ZM2.68602 16.5673C3.00102 16.4023 3.41352 16.5298 3.58602 16.8448C3.75852 17.1598 3.62352 17.5573 3.28602 17.7223C2.97102 17.8873 2.55852 17.7598 2.38602 17.4448C2.23602 17.1298 2.36352 16.7323 2.68602 16.5673ZM3.32352 6.34482C3.62352 6.53232 3.71352 6.94482 3.52602 7.24482C3.52602 7.24482 3.52602 7.24482 3.52602 7.25982C3.32352 7.55982 2.91102 7.64982 2.61102 7.44732C2.31102 7.25982 2.22102 6.84732 2.40852 6.54732C2.40852 6.54732 2.40852 6.54732 2.40852 6.53232C2.61102 6.23232 3.02352 6.15732 3.32352 6.34482ZM12.9385 5.63232C12.901 6.13482 12.451 6.53232 11.9485 6.50982C11.4235 6.47232 11.0335 6.04482 11.0485 5.51982C11.086 5.01732 11.536 4.61982 12.0385 4.64232C12.5635 4.67982 12.9535 5.12982 12.9385 5.63232ZM18.076 9.60732C17.611 9.83232 17.0485 9.65982 16.801 9.19482C16.576 8.74482 16.7485 8.18232 17.2135 7.95732H17.2285C17.6935 7.73232 18.256 7.90482 18.5035 8.36982C18.7285 8.81982 18.541 9.38232 18.076 9.60732ZM17.1385 15.9823C16.711 15.7048 16.576 15.1423 16.861 14.7073C16.861 14.7073 16.861 14.6923 16.876 14.6923C17.1535 14.2648 17.7535 14.1523 18.1885 14.4298C18.6235 14.7073 18.751 15.2698 18.466 15.7048C18.466 15.7048 18.466 15.7198 18.451 15.7198C18.166 16.1323 17.566 16.2673 17.1385 15.9823ZM11.011 18.3673C11.0485 17.8648 11.4985 17.4673 12.001 17.4898C12.526 17.5273 12.916 17.9548 12.901 18.4798C12.8635 18.9823 12.4135 19.3798 11.911 19.3573C11.3635 19.3198 10.9735 18.8698 11.011 18.3673ZM5.92602 14.3923C6.39102 14.1673 6.95352 14.3398 7.20102 14.8048C7.42602 15.2548 7.25352 15.8173 6.78852 16.0573H6.77352C6.30852 16.2823 5.74602 16.0948 5.49852 15.6448C5.27352 15.1798 5.46102 14.6323 5.92602 14.3923ZM6.86352 8.01732C7.29102 8.29482 7.42602 8.85732 7.14102 9.29232C7.14102 9.29232 7.14102 9.30732 7.12602 9.30732C6.84852 9.73482 6.24852 9.84732 5.81352 9.56982C5.38602 9.29232 5.25102 8.72982 5.53602 8.29482C5.53602 8.29482 5.53602 8.27982 5.55102 8.27982C5.83602 7.86732 6.43602 7.73232 6.86352 8.01732ZM18.151 2.50482C17.986 2.74482 17.6635 2.80482 17.4235 2.65482C17.1835 2.50482 17.1235 2.18982 17.2735 1.96482C17.4385 1.72482 17.761 1.66482 18.001 1.81482C18.241 1.94232 18.316 2.24232 18.151 2.50482C18.151 2.48232 18.151 2.48232 18.151 2.50482ZM23.4535 12.4948C23.176 12.4798 22.951 12.2323 22.966 11.9548C22.981 11.6773 23.2285 11.4523 23.506 11.4673C23.7835 11.4823 24.0085 11.7298 23.9935 12.0073C23.9785 12.2923 23.7385 12.5173 23.4535 12.4948ZM17.2885 22.0048C17.161 21.7648 17.251 21.4423 17.5135 21.3148C17.776 21.1873 18.076 21.2998 18.2035 21.5398C18.331 21.7798 18.241 22.1023 17.9785 22.2298C17.7385 22.3573 17.416 22.2448 17.2885 22.0048ZM5.85102 21.5173C6.01602 21.2773 6.33852 21.2173 6.57852 21.3673C6.81852 21.5173 6.87852 21.8323 6.72852 22.0798C6.56352 22.3198 6.24102 22.3798 6.00102 22.2298C5.76102 22.0573 5.68602 21.7573 5.85102 21.5173ZM0.548521 11.5198C0.826021 11.5348 1.05102 11.7823 1.03602 12.0598C1.02102 12.3373 0.773521 12.5623 0.496021 12.5473C0.218521 12.5323 -0.00647854 12.2848 0.00852145 12.0073C0.0235215 11.7073 0.263521 11.5048 0.548521 11.5198ZM6.71352 2.01732C6.84102 2.27982 6.72852 2.57982 6.48852 2.70732C6.22602 2.83482 5.92602 2.72232 5.79852 2.48232C5.67102 2.24232 5.76102 1.91982 6.02352 1.79232C6.26352 1.65732 6.58602 1.75482 6.71352 2.01732ZM16.891 5.21982C16.651 5.59482 16.141 5.68482 15.766 5.44482C15.391 5.21982 15.301 4.73232 15.526 4.35732V4.34232C15.766 3.96732 16.276 3.87732 16.651 4.11732C17.026 4.35732 17.1385 4.82982 16.891 5.21982C16.891 5.20482 16.891 5.20482 16.891 5.21982ZM20.416 12.7798C19.966 12.7648 19.6285 12.3898 19.651 11.9398C19.666 11.5123 20.0635 11.1748 20.491 11.1898C20.941 11.2048 21.2785 11.5798 21.256 12.0298C21.241 12.4573 20.866 12.7948 20.416 12.7798ZM15.526 19.5673C15.3235 19.1773 15.4885 18.7048 15.8635 18.5023C15.8635 18.5023 15.8635 18.5023 15.8785 18.5023C16.2685 18.2998 16.756 18.4648 16.966 18.8548C17.1685 19.2448 17.0035 19.7173 16.6285 19.9198C16.6285 19.9198 16.6285 19.9198 16.6135 19.9198C16.216 20.1073 15.7285 19.9573 15.526 19.5673ZM7.11102 18.7798C7.35102 18.4048 7.86102 18.3148 8.23602 18.5548C8.61102 18.7798 8.70102 19.2673 8.47602 19.6423C8.47602 19.6423 8.47602 19.6423 8.47602 19.6573C8.23602 20.0323 7.72602 20.1223 7.35102 19.8823C6.97602 19.6573 6.86352 19.1698 7.11102 18.7798C7.11102 18.7948 7.11102 18.7948 7.11102 18.7798ZM3.58602 11.2198C4.03602 11.2348 4.37352 11.6098 4.35102 12.0598C4.33602 12.4873 3.93852 12.8248 3.51102 12.8098C3.06102 12.7948 2.72352 12.4198 2.74602 11.9698C2.76102 11.5423 3.13602 11.2048 3.58602 11.2198ZM8.47602 4.43232C8.67852 4.82232 8.51352 5.29482 8.13852 5.48232H8.12352C7.73352 5.68482 7.24602 5.51982 7.03602 5.12982C6.83352 4.73982 6.99852 4.26732 7.37352 4.06482C7.37352 4.06482 7.37352 4.06482 7.38852 4.06482C7.78602 3.89232 8.27352 4.05732 8.47602 4.43232ZM13.891 10.3423C13.576 10.3423 13.276 10.2523 13.0135 10.0798C12.2635 9.59232 12.061 8.61732 12.5485 7.88982C12.8485 7.43982 13.351 7.17732 13.8985 7.17732C14.2135 7.17732 14.5135 7.26732 14.776 7.43982C15.526 7.92732 15.7285 8.90232 15.241 9.62982C14.941 10.0798 14.4385 10.3423 13.891 10.3423ZM15.8035 13.5823C15.766 13.5823 15.751 13.5823 15.7135 13.5823C14.836 13.5298 14.1385 12.7798 14.1985 11.9173C14.251 11.0548 15.001 10.3648 15.901 10.4173C16.3285 10.4323 16.726 10.6198 17.0035 10.9423C17.281 11.2573 17.431 11.6698 17.416 12.0823C17.3785 12.9298 16.666 13.5823 15.8035 13.5823ZM13.9135 16.8298C13.3135 16.8298 12.751 16.4923 12.4735 15.9523C12.286 15.5773 12.2485 15.1498 12.3835 14.7373C12.511 14.3473 12.811 14.0098 13.186 13.8223C13.411 13.7098 13.651 13.6573 13.9135 13.6573C14.5285 13.6573 15.076 13.9948 15.3535 14.5348C15.7435 15.3223 15.4285 16.2748 14.641 16.6723C14.416 16.7698 14.1535 16.8298 13.9135 16.8298ZM10.111 16.8448C9.79602 16.8448 9.49602 16.7548 9.23352 16.5823C8.88102 16.3573 8.63352 16.0048 8.54352 15.5698C8.45352 15.1573 8.54352 14.7298 8.76852 14.3698C9.06852 13.9198 9.57102 13.6573 10.1185 13.6573C10.4335 13.6573 10.7335 13.7473 10.996 13.9198C11.3485 14.1448 11.596 14.4973 11.686 14.9323C11.776 15.3448 11.686 15.7723 11.461 16.1323C11.161 16.5673 10.651 16.8448 10.111 16.8448ZM8.19852 13.6048C8.16102 13.6048 8.14602 13.6048 8.10852 13.6048C7.23102 13.5523 6.53352 12.8023 6.59352 11.9398C6.64602 11.0773 7.39602 10.3873 8.29602 10.4398C9.17352 10.4923 9.87102 11.2423 9.81102 12.1048C9.75102 12.9448 9.06102 13.6048 8.19852 13.6048ZM10.0885 10.3573C9.47352 10.3573 8.92602 10.0198 8.64852 9.47982C8.25852 8.69232 8.57352 7.73982 9.36102 7.34232C9.58602 7.22982 9.82602 7.17732 10.0885 7.17732C10.7035 7.17732 11.251 7.51482 11.5285 8.05482C11.9185 8.84232 11.6035 9.79482 10.816 10.1923C10.5985 10.2823 10.351 10.3573 10.0885 10.3573Z" fill="#3265CA"/>
</svg>
