<svg width="24" height="24" viewBox="0 0 24 24" fill="none" xmlns="http://www.w3.org/2000/svg">
<g opacity="0.4">
<path d="M6 5.5V12M6 5.5H8.5M6 5.5H3.5M6 18.5V12M6 18.5H8.5M6 18.5H3.5M6 12H14.75C16.5449 12 18 13.4551 18 15.25V15.25C18 17.0449 16.5449 18.5 14.75 18.5H11.5M8.5 3V5.5M8.5 21V18.5M12 12H12.4904C14.1886 12 15.6006 10.6925 15.7308 8.99926V8.99926C15.876 7.11168 14.3836 5.5 12.4904 5.5H11.5M11.5 3V5.5M11.5 21V18.5M8.5 18.5H11.5M11.5 5.5H8.5" stroke="#222531" stroke-width="1.5" stroke-linecap="round" stroke-linejoin="round"/>
</g>
</svg>
