<svg width="24" height="24" viewBox="0 0 24 24" fill="none" xmlns="http://www.w3.org/2000/svg">
<path d="M12.0918 0C7.07895 0.0201358 3.02014 4.07895 3 9.09181C3 10.0957 3.16205 11.0929 3.47942 12.0451C3.71626 12.6932 4.4191 13.0423 5.07879 12.8419C5.71642 12.5974 6.05489 11.9003 5.85162 11.2483C5.58218 10.5061 5.46233 9.7189 5.4978 8.93072C5.60711 5.31011 8.63036 2.46328 12.251 2.57259C15.8716 2.6819 18.7184 5.70515 18.6091 9.32577C18.5065 12.7153 15.8371 15.4682 12.4514 15.6743C12.4514 15.6743 11.1751 15.752 10.5404 15.8296C10.3064 15.8632 10.0744 15.9092 9.84523 15.9677C9.81262 16.0013 9.75989 16.0013 9.72633 15.9687L9.72537 15.9677C9.70236 15.938 9.70236 15.8958 9.72537 15.8661L9.92289 14.7883L11.1215 9.39768C11.2653 8.72457 10.8367 8.06201 10.1636 7.91818C9.49045 7.77435 8.82789 8.20296 8.68406 8.87607C8.68406 8.87607 5.8334 22.0708 5.8334 22.1907C5.6704 22.8321 6.05777 23.4841 6.69924 23.6471C6.70595 23.6491 6.71362 23.651 6.72034 23.6519H6.7865C7.42701 23.8178 8.08094 23.4324 8.24586 22.7919C8.24874 22.7813 8.25162 22.7708 8.25354 22.7593C8.25162 22.7391 8.25162 22.719 8.25354 22.6998C8.28901 22.5445 8.64858 20.7888 8.64858 20.7888C8.92089 19.4637 9.98905 18.4483 11.3257 18.2431C11.6009 18.2009 12.7573 18.1232 12.7573 18.1232C17.7509 17.6256 21.3955 13.1736 20.8969 8.17994C20.4424 3.62541 16.6694 0.118897 12.0918 0Z" fill="#1E1E1E"/>
<path d="M12.6443 20.9633C11.8245 20.7926 11.0229 21.319 10.8522 22.1379C10.8503 22.1456 10.8493 22.1532 10.8474 22.1609C10.67 22.975 11.1859 23.7795 12.0009 23.9569C12.0018 23.9569 12.0028 23.9569 12.0038 23.9578H12.0459C12.8437 24.1505 13.6462 23.6596 13.838 22.8628C13.8399 22.857 13.8409 22.8503 13.8428 22.8446V22.7611C13.9837 21.9384 13.4583 21.1493 12.6443 20.9633Z" fill="#E6007A"/>
</svg>
