<svg width="149" height="108" viewBox="0 0 149 108" fill="none" xmlns="http://www.w3.org/2000/svg">
<path d="M72.3079 16.1142C71.5343 15.6696 70.7606 15.5584 70.208 15.8919L15.498 47.9066C16.0507 47.5731 16.7138 47.6843 17.598 48.129L25.5558 52.7978L80.2657 20.6719L72.3079 16.1142Z" fill="url(#paint0_linear)"/>
<path d="M80.2646 20.6719L25.5547 52.6866L40.0335 64.4698L94.8539 32.4551L80.2646 20.6719Z" fill="url(#paint1_linear)"/>
<path d="M34.5581 55.8645C32.9303 54.5429 33.1257 52.0018 34.9364 50.9447L75.191 27.4422C78.0482 25.774 81.6374 26.0368 84.2212 28.1032L85.6994 29.2854C87.3424 30.5994 87.1577 33.1526 85.3426 34.2164L45.1483 57.7754C42.2712 59.4617 38.6497 59.1864 36.0606 57.0843L34.5581 55.8645Z" fill="white"/>
<path d="M34.5581 55.8645C32.9303 54.5429 33.1257 52.0018 34.9364 50.9447L75.191 27.4422C78.0482 25.774 81.6374 26.0368 84.2212 28.1032L85.6994 29.2854C87.3424 30.5994 87.1577 33.1526 85.3426 34.2164L45.1483 57.7754C42.2712 59.4617 38.6497 59.1864 36.0606 57.0843L34.5581 55.8645Z" fill="url(#paint2_linear)"/>
<path d="M95.8617 33.0461C95.2384 32.681 94.4667 32.6804 93.8428 33.0445L37.7153 65.8004C36.3911 66.5732 36.3932 68.4874 37.719 69.2573L76.796 91.9488C77.6054 92.4188 78.6023 92.4184 79.4113 91.9476L132.642 60.9719C135.077 59.5552 135.082 56.019 132.651 54.5953L95.8617 33.0461Z" fill="url(#paint3_linear)"/>
<path d="M40.034 64.4697L25.5553 52.6865L17.5975 48.0177C15.9396 47.1284 14.6133 47.9065 14.6133 49.7963V52.353C14.6133 54.2428 15.9396 56.466 17.4869 57.4665L76.8334 91.9439C78.5852 92.9616 80.7744 91.6889 80.7744 89.6527C80.7744 88.7072 80.2731 87.8336 79.4596 87.3612L40.034 64.4697Z" fill="url(#paint4_linear)"/>
<path d="M122.01 55.1868L117.265 58.0243C116.111 58.6692 114.316 58.6692 113.162 58.0243L99.6965 50.2856C99.1835 49.8986 98.7988 49.5117 98.7988 49.1248V50.5435C98.7988 50.9305 99.0553 51.4464 99.6965 51.7043L113.162 59.4431C114.316 60.088 116.111 60.088 117.265 59.4431L122.01 56.6055C122.523 56.2186 122.908 55.8316 122.908 55.4447V54.0259C122.908 54.4129 122.651 54.7998 122.01 55.1868Z" fill="url(#paint5_linear)"/>
<path d="M101 42.7922L96.2555 45.6297C95.1014 46.2746 93.306 46.2746 92.1519 45.6297L89.2024 43.953C88.6894 43.566 88.3047 43.1791 88.3047 42.7922V44.2109C88.3047 44.5979 88.5612 45.1138 89.2024 45.3717L92.1519 47.0484C93.306 47.6933 95.1014 47.6933 96.2555 47.0484L101 44.2109C101.513 43.824 101.898 43.437 101.898 43.0501V41.6313C101.77 42.0183 101.513 42.5342 101 42.7922Z" fill="url(#paint6_linear)"/>
<path d="M109.977 62.0099L105.232 64.8475C104.078 65.4923 102.283 65.4923 101.128 64.8475L98.1789 63.1707C97.666 62.7838 97.2812 62.3969 97.2812 62.0099V63.4287C97.2812 63.8156 97.5377 64.3315 98.1789 64.5895L101.128 66.2662C102.283 66.9111 104.078 66.9111 105.232 66.2662L109.977 63.4287C110.49 63.0418 110.875 62.6548 110.875 62.2679V60.8491C110.746 61.2361 110.49 61.623 109.977 62.0099Z" fill="url(#paint7_linear)"/>
<path d="M99.4613 55.8193L94.7165 58.6568C93.5623 59.3017 91.767 59.3017 90.6128 58.6568L87.6633 56.9801C87.1503 56.5931 86.7656 56.2062 86.7656 55.8193V57.238C86.7656 57.625 87.0221 58.1409 87.6633 58.3988L90.6128 60.0755C91.767 60.7204 93.5623 60.7204 94.7165 60.0755L99.4613 57.238C99.9743 56.8511 100.359 56.4641 100.359 56.0772V54.6584C100.359 55.1744 99.9743 55.5613 99.4613 55.8193Z" fill="url(#paint8_linear)"/>
<path d="M88.9438 49.757L84.1989 52.5945C83.0447 53.2394 81.2494 53.2394 80.0952 52.5945L77.1457 50.9178C76.6328 50.5309 76.248 50.1439 76.248 49.757V51.1758C76.248 51.5627 76.5045 52.0786 77.1457 52.3366L80.0952 54.0133C81.2494 54.6582 83.0447 54.6582 84.1989 54.0133L88.9438 51.1758C89.4567 50.7888 89.8414 50.4019 89.8414 50.015V48.5962C89.8414 48.9831 89.4567 49.499 88.9438 49.757Z" fill="url(#paint9_linear)"/>
<path d="M97.9203 68.9751L93.1754 71.6836C92.0213 72.3285 90.2259 72.3285 89.0718 71.6836L86.1223 70.0069C85.6093 69.62 85.2246 69.233 85.2246 68.8461V70.2649C85.2246 70.6518 85.4811 71.1677 86.1223 71.4257L89.0718 73.1024C90.2259 73.7473 92.0213 73.7473 93.1754 73.1024L97.9203 70.2649C98.4332 69.8779 98.818 69.491 98.818 69.1041V67.6853C98.818 68.2012 98.5615 68.5882 97.9203 68.9751Z" fill="url(#paint10_linear)"/>
<path d="M87.4066 62.9128L82.6618 65.7503C81.5076 66.3952 79.7123 66.3952 78.5581 65.7503L75.6086 64.0736C75.0957 63.6866 74.7109 63.2997 74.7109 62.9128V64.3315C74.7109 64.7185 74.9674 65.2344 75.6086 65.4923L78.5581 67.169C79.7123 67.8139 81.5076 67.8139 82.6618 67.169L87.4066 64.3315C87.9196 63.9446 88.3043 63.5577 88.3043 63.1707V61.752C88.3043 62.1389 88.0478 62.5258 87.4066 62.9128Z" fill="url(#paint11_linear)"/>
<path d="M76.891 56.7218L72.1461 59.5594C70.992 60.2043 69.1966 60.2043 68.0425 59.5594L65.093 57.8826C64.58 57.4957 64.1953 57.1088 64.1953 56.7218V58.1406C64.1953 58.5275 64.4518 59.0435 65.093 59.3014L68.0425 60.9781C69.1966 61.623 70.992 61.623 72.1461 60.9781L76.891 58.1406C77.404 57.7537 77.7887 57.3667 77.7887 56.9798V55.561C77.7887 55.948 77.5322 56.4639 76.891 56.7218Z" fill="url(#paint12_linear)"/>
<path d="M85.8676 75.9394L81.1227 78.7769C79.9686 79.4218 78.1732 79.4218 77.0191 78.7769L74.0695 77.1002C73.5566 76.7132 73.1719 76.3263 73.1719 75.9394V77.3581C73.1719 77.7451 73.4284 78.261 74.0695 78.5189L77.0191 80.1957C78.1732 80.8406 79.9686 80.8406 81.1227 80.1957L85.8676 77.3581C86.3805 76.9712 86.7653 76.5843 86.7653 76.1973V74.7786C86.7653 75.1655 86.5088 75.5524 85.8676 75.9394Z" fill="url(#paint13_linear)"/>
<path d="M75.4808 69.8777L70.736 72.7152C69.5818 73.3601 67.7865 73.3601 66.6323 72.7152L63.6828 70.9095C63.1699 70.5226 62.7852 70.1356 62.7852 69.7487V71.1675C62.7852 71.5544 63.0416 72.0703 63.6828 72.3283L66.6323 74.005C67.7865 74.6499 69.5818 74.6499 70.736 74.005L75.4808 71.1675C75.9938 70.7805 76.3785 70.3936 76.3785 70.0067V68.5879C76.2503 69.1038 75.9938 69.4907 75.4808 69.8777Z" fill="url(#paint14_linear)"/>
<path d="M64.9652 63.6867L60.2204 66.5242C59.0662 67.1691 57.2709 67.1691 56.1167 66.5242L53.1672 64.8475C52.6542 64.4606 52.2695 64.0736 52.2695 63.6867V65.1054C52.2695 65.4924 52.526 66.0083 53.1672 66.2663L56.1167 67.943C57.2709 68.5879 59.0662 68.5879 60.2204 67.943L64.9652 65.1054C65.4782 64.7185 65.8629 64.3316 65.8629 63.9446V62.5259C65.7346 63.0418 65.4782 63.4287 64.9652 63.6867Z" fill="url(#paint15_linear)"/>
<path d="M122.009 52.736L108.544 44.9973C107.39 44.3524 105.594 44.3524 104.44 44.9973L99.6953 47.8348C98.5412 48.4797 98.5412 49.5115 99.6953 50.1564L113.16 57.8951C114.315 58.54 116.11 58.54 117.264 57.8951L122.009 55.0576C123.163 54.5417 123.163 53.3809 122.009 52.736Z" fill="url(#paint16_linear)"/>
<path d="M100.999 40.4705L98.0497 38.7937C96.8955 38.1488 95.1002 38.1488 93.946 38.7937L89.2012 41.6313C88.047 42.2762 88.047 43.308 89.2012 43.9529L92.1507 45.6296C93.3048 46.2745 95.1002 46.2745 96.2543 45.6296L100.999 42.7921C102.153 42.1472 102.153 41.1153 100.999 40.4705Z" fill="url(#paint17_linear)"/>
<path d="M109.976 59.5593L107.026 57.8826C105.872 57.2377 104.077 57.2377 102.922 57.8826L98.1776 60.7201C97.0235 61.365 97.0235 62.3968 98.1776 63.0417L101.127 64.7185C102.281 65.3633 104.077 65.3633 105.231 64.7185L109.976 61.8809C111.13 61.365 111.13 60.2042 109.976 59.5593Z" fill="url(#paint18_linear)"/>
<path d="M99.4598 53.4973L96.5103 51.8206C95.3561 51.1757 93.5608 51.1757 92.4066 51.8206L87.6618 54.6581C86.5076 55.303 86.5076 56.3348 87.6618 56.9797L90.6113 58.6564C91.7654 59.3013 93.5608 59.3013 94.7149 58.6564L99.4598 55.8189C100.614 55.174 100.614 54.1422 99.4598 53.4973Z" fill="url(#paint19_linear)"/>
<path d="M88.9439 47.4353L85.9944 45.7586C84.8403 45.1137 83.0449 45.1137 81.8908 45.7586L77.1459 48.5961C75.9918 49.241 75.9918 50.2728 77.1459 50.9177L80.0954 52.5945C81.2496 53.2394 83.0449 53.2394 84.1991 52.5945L88.9439 49.7569C90.0981 49.112 90.0981 48.0802 88.9439 47.4353Z" fill="url(#paint20_linear)"/>
<path d="M97.9196 66.5241L94.9701 64.8474C93.8159 64.2025 92.0206 64.2025 90.8664 64.8474L86.1215 67.685C84.9674 68.3299 84.9674 69.3617 86.1215 70.0066L89.0711 71.6833C90.2252 72.3282 92.0206 72.3282 93.1747 71.6833L97.9196 68.8458C99.0737 68.3298 99.0737 67.169 97.9196 66.5241Z" fill="url(#paint21_linear)"/>
<path d="M87.4057 60.4621L84.4562 58.7854C83.302 58.1405 81.5067 58.1405 80.3525 58.7854L75.6077 61.6229C74.4535 62.2678 74.4535 63.2997 75.6077 63.9446L78.5572 65.6213C79.7113 66.2662 81.5067 66.2662 82.6609 65.6213L87.4057 62.7838C88.5599 62.1389 88.5599 61.107 87.4057 60.4621Z" fill="url(#paint22_linear)"/>
<path d="M76.89 54.4002L73.9405 52.7234C72.7863 52.0785 70.991 52.0785 69.8368 52.7234L65.0919 55.561C63.9378 56.2059 63.9378 57.2377 65.0919 57.8826L68.0415 59.5593C69.1956 60.2042 70.991 60.2042 72.1451 59.5593L76.89 56.7218C78.0441 56.0769 78.0441 55.0451 76.89 54.4002Z" fill="url(#paint23_linear)"/>
<path d="M85.8662 73.489L82.9167 71.8123C81.7625 71.1674 79.9672 71.1674 78.813 71.8123L74.0682 74.6498C72.914 75.2947 72.914 76.3265 74.0682 76.9714L77.0177 78.6481C78.1718 79.293 79.9672 79.293 81.1213 78.6481L85.8662 75.8106C87.0203 75.2947 87.0203 74.1339 85.8662 73.489Z" fill="url(#paint24_linear)"/>
<path d="M75.3516 67.427L72.4021 65.7503C71.2479 65.1054 69.4526 65.1054 68.2984 65.7503L63.6818 68.5878C62.5276 69.2327 62.5276 70.2645 63.6818 70.9094L66.6313 72.5861C67.7855 73.231 69.5808 73.231 70.735 72.5861L75.4798 69.7486C76.5057 69.2327 76.5057 68.0719 75.3516 67.427Z" fill="url(#paint25_linear)"/>
<path d="M64.9644 61.365L62.0149 59.6883C60.8608 59.0434 59.0654 59.0434 57.9112 59.6883L53.1664 62.5258C52.0122 63.1707 52.0122 64.2025 53.1664 64.8474L56.1159 66.5241C57.2701 67.169 59.0654 67.169 60.2196 66.5241L64.9644 63.6866C66.1186 63.0417 65.9903 62.0099 64.9644 61.365Z" fill="url(#paint26_linear)"/>
<defs>
<linearGradient id="paint0_linear" x1="47.8819" y1="15.698" x2="47.8819" y2="52.7978" gradientUnits="userSpaceOnUse">
<stop stop-color="#FFC700"/>
<stop offset="1" stop-color="#FFB800"/>
</linearGradient>
<linearGradient id="paint1_linear" x1="60.2043" y1="20.6719" x2="60.2043" y2="64.4698" gradientUnits="userSpaceOnUse">
<stop stop-color="#FFB800"/>
<stop offset="1" stop-color="#FF7A00"/>
</linearGradient>
<linearGradient id="paint2_linear" x1="60.149" y1="24.6736" x2="60.149" y2="60.579" gradientUnits="userSpaceOnUse">
<stop stop-color="#FFC700"/>
<stop offset="1" stop-color="#FFB800"/>
</linearGradient>
<linearGradient id="paint3_linear" x1="84.6097" y1="32.4551" x2="84.6097" y2="92.301" gradientUnits="userSpaceOnUse">
<stop stop-color="#FFC700"/>
<stop offset="1" stop-color="#FFB800"/>
</linearGradient>
<linearGradient id="paint4_linear" x1="47.6938" y1="47.6506" x2="47.6938" y2="92.302" gradientUnits="userSpaceOnUse">
<stop stop-color="#FFB800"/>
<stop offset="1" stop-color="#FF7A00"/>
</linearGradient>
<linearGradient id="paint5_linear" x1="110.853" y1="49.1248" x2="110.853" y2="59.9267" gradientUnits="userSpaceOnUse">
<stop stop-color="#FFB800"/>
<stop offset="1" stop-color="#FF7A00"/>
</linearGradient>
<linearGradient id="paint6_linear" x1="95.1014" y1="41.6313" x2="95.1014" y2="47.5321" gradientUnits="userSpaceOnUse">
<stop stop-color="#FFB800"/>
<stop offset="1" stop-color="#FF7A00"/>
</linearGradient>
<linearGradient id="paint7_linear" x1="104.078" y1="60.8491" x2="104.078" y2="66.7499" gradientUnits="userSpaceOnUse">
<stop stop-color="#FFB800"/>
<stop offset="1" stop-color="#FF7A00"/>
</linearGradient>
<linearGradient id="paint8_linear" x1="93.5623" y1="54.6584" x2="93.5623" y2="60.5592" gradientUnits="userSpaceOnUse">
<stop stop-color="#FFB800"/>
<stop offset="1" stop-color="#FF7A00"/>
</linearGradient>
<linearGradient id="paint9_linear" x1="83.0447" y1="48.5962" x2="83.0447" y2="54.497" gradientUnits="userSpaceOnUse">
<stop stop-color="#FFB800"/>
<stop offset="1" stop-color="#FF7A00"/>
</linearGradient>
<linearGradient id="paint10_linear" x1="92.0213" y1="67.6853" x2="92.0213" y2="73.5861" gradientUnits="userSpaceOnUse">
<stop stop-color="#FFB800"/>
<stop offset="1" stop-color="#FF7A00"/>
</linearGradient>
<linearGradient id="paint11_linear" x1="81.5076" y1="61.752" x2="81.5076" y2="67.6527" gradientUnits="userSpaceOnUse">
<stop stop-color="#FFB800"/>
<stop offset="1" stop-color="#FF7A00"/>
</linearGradient>
<linearGradient id="paint12_linear" x1="70.992" y1="55.561" x2="70.992" y2="61.4618" gradientUnits="userSpaceOnUse">
<stop stop-color="#FFB800"/>
<stop offset="1" stop-color="#FF7A00"/>
</linearGradient>
<linearGradient id="paint13_linear" x1="79.9686" y1="74.7786" x2="79.9686" y2="80.6793" gradientUnits="userSpaceOnUse">
<stop stop-color="#FFB800"/>
<stop offset="1" stop-color="#FF7A00"/>
</linearGradient>
<linearGradient id="paint14_linear" x1="69.5818" y1="68.5879" x2="69.5818" y2="74.4887" gradientUnits="userSpaceOnUse">
<stop stop-color="#FFB800"/>
<stop offset="1" stop-color="#FF7A00"/>
</linearGradient>
<linearGradient id="paint15_linear" x1="59.0662" y1="62.5259" x2="59.0662" y2="68.4266" gradientUnits="userSpaceOnUse">
<stop stop-color="#FFB800"/>
<stop offset="1" stop-color="#FF7A00"/>
</linearGradient>
<linearGradient id="paint16_linear" x1="99.9462" y1="41.8863" x2="58.8937" y2="66.7637" gradientUnits="userSpaceOnUse">
<stop stop-color="#FFD600"/>
<stop offset="1" stop-color="#FFA800"/>
</linearGradient>
<linearGradient id="paint17_linear" x1="99.9462" y1="41.8863" x2="58.8937" y2="66.7637" gradientUnits="userSpaceOnUse">
<stop stop-color="#FFD600"/>
<stop offset="1" stop-color="#FFA800"/>
</linearGradient>
<linearGradient id="paint18_linear" x1="99.9462" y1="41.8863" x2="58.8937" y2="66.7637" gradientUnits="userSpaceOnUse">
<stop stop-color="#FFD600"/>
<stop offset="1" stop-color="#FFA800"/>
</linearGradient>
<linearGradient id="paint19_linear" x1="99.9462" y1="41.8863" x2="58.8937" y2="66.7637" gradientUnits="userSpaceOnUse">
<stop stop-color="#FFD600"/>
<stop offset="1" stop-color="#FFA800"/>
</linearGradient>
<linearGradient id="paint20_linear" x1="99.9462" y1="41.8863" x2="58.8937" y2="66.7637" gradientUnits="userSpaceOnUse">
<stop stop-color="#FFD600"/>
<stop offset="1" stop-color="#FFA800"/>
</linearGradient>
<linearGradient id="paint21_linear" x1="99.9462" y1="41.8863" x2="58.8937" y2="66.7637" gradientUnits="userSpaceOnUse">
<stop stop-color="#FFD600"/>
<stop offset="1" stop-color="#FFA800"/>
</linearGradient>
<linearGradient id="paint22_linear" x1="99.9462" y1="41.8863" x2="58.8937" y2="66.7637" gradientUnits="userSpaceOnUse">
<stop stop-color="#FFD600"/>
<stop offset="1" stop-color="#FFA800"/>
</linearGradient>
<linearGradient id="paint23_linear" x1="99.9462" y1="41.8863" x2="58.8937" y2="66.7637" gradientUnits="userSpaceOnUse">
<stop stop-color="#FFD600"/>
<stop offset="1" stop-color="#FFA800"/>
</linearGradient>
<linearGradient id="paint24_linear" x1="99.9462" y1="41.8863" x2="58.8937" y2="66.7637" gradientUnits="userSpaceOnUse">
<stop stop-color="#FFD600"/>
<stop offset="1" stop-color="#FFA800"/>
</linearGradient>
<linearGradient id="paint25_linear" x1="99.9462" y1="41.8863" x2="58.8937" y2="66.7637" gradientUnits="userSpaceOnUse">
<stop stop-color="#FFD600"/>
<stop offset="1" stop-color="#FFA800"/>
</linearGradient>
<linearGradient id="paint26_linear" x1="99.9462" y1="41.8863" x2="58.8937" y2="66.7637" gradientUnits="userSpaceOnUse">
<stop stop-color="#FFD600"/>
<stop offset="1" stop-color="#FFA800"/>
</linearGradient>
</defs>
</svg>
