<svg width="149" height="108" viewBox="0 0 149 108" fill="none" xmlns="http://www.w3.org/2000/svg">
<g opacity="0.9">
<path d="M126.689 55.8239C125.712 52.4204 123.967 49.2905 121.589 46.6788C118.784 43.5776 115.5 40.9526 111.864 38.905C107.64 36.4961 103.148 34.5982 98.4819 33.2508C93.347 31.758 88.0792 30.7755 82.754 30.3173C77.2508 29.8112 71.7133 29.8112 66.2101 30.3173C60.8826 30.7761 55.6124 31.7587 50.4749 33.2508C45.8063 34.5985 41.312 36.4963 37.0854 38.905C33.4483 40.9511 30.1641 43.5762 27.3602 46.6788C24.9826 49.2905 23.2374 52.4204 22.2608 55.8239C21.3974 58.9723 21.3974 62.2974 22.2608 65.4457C23.2357 68.8477 24.9812 71.9757 27.3602 74.5836C30.1635 77.6887 33.4478 80.3164 37.0854 82.3646C41.3043 84.7716 45.7914 86.6671 50.4531 88.0116C55.5936 89.5015 60.8659 90.4839 66.1956 90.9451C71.699 91.4438 77.2359 91.4438 82.7394 90.9451C88.069 90.4839 93.3414 89.5015 98.4819 88.0116C103.145 86.6678 107.632 84.7696 111.85 82.3573C115.492 80.3133 118.782 77.688 121.589 74.5836C123.968 71.9757 125.714 68.8477 126.689 65.4457C127.552 62.2974 127.552 58.9723 126.689 55.8239Z" fill="url(#paint0_linear)"/>
<path d="M21.6055 55.8167H127.33V61.2436L21.6055 60.9429V55.8167Z" fill="#FFA901"/>
<path d="M50.4907 28.4472C55.6272 26.9452 60.8974 25.9528 66.2259 25.4844C71.7194 24.9801 77.2471 24.9801 82.7406 25.4844C88.0668 25.9522 93.3347 26.9225 98.4685 28.4252C103.136 29.7696 107.628 31.6677 111.851 34.0795C115.494 36.1321 118.783 38.7648 121.591 41.8752C123.968 44.4897 125.713 47.622 126.69 51.0277C127.553 54.1736 127.553 57.4963 126.69 60.6422C125.714 64.0458 123.968 67.1758 121.591 69.7873C118.781 72.8869 115.495 75.5117 111.858 77.5611C107.638 79.9674 103.144 81.8652 98.4831 83.2153C93.3426 84.7053 88.0703 85.6877 82.7406 86.1488C77.247 86.6494 71.7196 86.6494 66.2259 86.1488C60.8963 85.6877 55.6239 84.7053 50.4835 83.2153C45.8352 81.8625 41.2952 79.9647 37.0867 77.5611C33.4484 75.5136 30.162 72.8886 27.3542 69.7873C24.9764 67.1758 23.2311 64.0238 22.2548 60.6202C21.3916 57.4743 21.3916 54.1736 22.2548 51.0277C23.2313 47.622 24.9765 44.4823 27.3542 41.8679C30.1569 38.7622 33.4413 36.1344 37.0794 34.0868C41.3009 31.6839 45.827 29.786 50.4907 28.4472Z" fill="url(#paint1_linear)"/>
<path d="M88.5235 37.0131L94.5481 30.134C94.5481 22.067 84.7573 21.869 80.4301 21.4803C76.1029 21.0916 68.6797 18.5908 68.6797 27.7726L70.7486 35.3703C76.7224 34.9839 82.7195 35.5382 88.5235 37.0131Z" fill="#FF7A00"/>
<path d="M88.5235 37.0131L94.5481 30.134C94.5481 22.067 84.7573 21.869 80.4301 21.4803C76.1029 21.0916 68.6797 18.5908 68.6797 27.7726L70.7486 35.3703C76.7224 34.9839 82.7195 35.5382 88.5235 37.0131Z" fill="url(#paint2_linear)"/>
<path d="M88.5235 26.2103L94.5481 19.3386C86.1123 17.1285 77.3728 16.3306 68.6797 16.9772L70.7486 24.5456C76.7235 24.1664 82.7206 24.728 88.5235 26.2103Z" fill="#FF7A00"/>
<path d="M70.7486 24.575V35.3849L68.6797 27.7872V16.9773L70.7486 24.575Z" fill="#FF7A00"/>
<path d="M94.548 19.3389L88.5234 26.2105V37.0278L94.548 30.1488V19.3389Z" fill="#FF7A00"/>
<g opacity="0.6">
<path d="M70.7486 24.575V35.3849L68.6797 27.7872V16.9773L70.7486 24.575Z" fill="url(#paint3_linear)"/>
<path d="M94.548 19.3386L88.5234 26.2103V37.0275L94.548 30.1485V19.3386Z" fill="url(#paint4_linear)"/>
</g>
<path d="M91.4668 27.0831V37.893C93.9804 38.71 96.4062 39.7787 98.7079 41.0832C100.716 42.2313 102.562 43.6473 104.193 45.2927L116.009 41.7946C113.66 39.3804 110.984 37.3115 108.062 35.6489C104.834 33.7862 101.381 26.2324 91.4668 27.0831Z" fill="#FF7A00"/>
<path d="M121.939 44.0754H117.947C117.801 43.8847 117.677 43.6941 117.532 43.5034L105.701 36.1697V46.9869C108.222 50.2504 109.176 53.8146 108.52 57.3128L121.589 58.5375C121.811 57.4467 121.92 56.3359 121.917 55.2226L121.939 44.0754Z" fill="#FF7A00"/>
<path d="M108.513 46.547L121.589 47.7277C122.652 42.6454 121.305 37.4165 117.524 32.6936L105.693 36.1918C108.214 39.4553 109.205 43.0268 108.513 46.547Z" fill="#FF7A00"/>
<path d="M121.59 47.7276V58.5448L108.514 57.3348V46.5249L121.59 47.7276Z" fill="#FF7A00"/>
<path d="M121.59 47.7276V58.5448L108.514 57.3348V46.5249L121.59 47.7276Z" fill="url(#paint5_linear)"/>
<path d="M67.4847 35.6932V24.876C60.1999 21.4951 46.6356 24.9273 42.0898 34.9965L51.4435 40.4381C56.4677 37.9085 61.8999 36.3017 67.4847 35.6932Z" fill="#FF7A00"/>
<path d="M67.4847 35.6932V24.876C60.1999 21.4951 46.6356 24.9273 42.0898 34.9965L51.4435 40.4381C56.4677 37.9085 61.8999 36.3017 67.4847 35.6932Z" fill="url(#paint6_linear)"/>
<path d="M67.4852 24.8758L65.4091 17.2561C56.6017 18.2535 48.5374 20.6956 42.0977 24.1865L51.4514 29.6207C56.4732 27.092 61.9029 25.4852 67.4852 24.8758Z" fill="#FF7A00"/>
<path d="M51.4435 29.6206V40.4378L42.0898 34.9962V24.1863L51.4435 29.6206Z" fill="url(#paint7_linear)"/>
<path d="M41.6616 30.9849L39.7384 36.3458C33.4516 40.262 29.4814 44.9776 27.8496 49.9132L40.9623 51.1159C42.1643 47.7351 44.9034 44.5156 49.1431 41.8021V30.9849H41.6616Z" fill="#FF7A00"/>
<path d="M41.6616 30.9849L39.7384 36.3458C33.4516 40.262 29.4814 44.9776 27.8496 49.9132L40.9623 51.1159C42.1643 47.7351 44.9034 44.5156 49.1431 41.8021V30.9849H41.6616Z" fill="url(#paint8_linear)"/>
<path d="M49.114 30.9846L39.7384 25.5356C33.4516 29.4445 29.4814 34.1674 27.8496 39.0957L40.9623 40.3057C42.1351 36.9249 44.8742 33.6981 49.114 30.9846Z" fill="#FF7A00"/>
<path d="M27.8496 39.0959V49.9132L40.9331 51.1159V40.306L27.8496 39.0959Z" fill="url(#paint9_linear)"/>
<path d="M40.4147 53.0152V42.198L36.5246 41.8459L26.9961 44.3467V55.1493C27.0571 59.4415 28.6028 63.578 31.367 66.8466L43.1975 63.3484C40.728 60.0849 39.7664 56.5134 40.4147 53.0152Z" fill="#FF7A00"/>
<path d="M40.4147 53.0152V42.198L36.5246 41.8459L26.9961 44.3467V55.1493C27.0571 59.4415 28.6028 63.578 31.367 66.8466L43.1975 63.3484C40.728 60.0849 39.7664 56.5134 40.4147 53.0152Z" fill="url(#paint10_linear)"/>
<path d="M31.4121 56.0368L43.2426 52.5312V63.3485L31.4121 66.8466V56.0368Z" fill="url(#paint11_linear)"/>
<path d="M40.4213 42.1979L27.3086 40.9951C26.2451 46.0847 27.5928 51.3063 31.3736 56.0365L43.2041 52.531C40.7273 49.2675 39.7657 45.696 40.4213 42.1979Z" fill="#FF7A00"/>
<path d="M54.4174 66.8321C48.8737 63.6126 46.1055 59.3957 46.1055 55.1788V44.3469H102.832V55.1568C102.832 59.381 100.064 63.5979 94.5204 66.8174C83.4474 73.2711 65.4977 73.2711 54.4174 66.8321Z" fill="url(#paint12_linear)"/>
<path d="M74.4731 60.8476C90.1358 60.8476 102.833 53.4665 102.833 44.3614C102.833 35.2563 90.1358 27.8752 74.4731 27.8752C58.8104 27.8752 46.1133 35.2563 46.1133 44.3614C46.1133 53.4665 58.8104 60.8476 74.4731 60.8476Z" fill="url(#paint13_linear)"/>
<path d="M51.4433 69.9269V68.5482L32.918 57.7456V68.5482C35.2682 70.9645 37.9464 73.0336 40.873 74.6938C44.2222 76.61 47.7659 78.1589 51.4433 79.3141L57.4605 72.4497C55.3911 71.7717 53.379 70.9281 51.4433 69.9269Z" fill="#FF7A00"/>
<path d="M51.4433 69.9269V68.5482L32.918 57.7456V68.5482C35.2682 70.9645 37.9464 73.0336 40.873 74.6938C44.2222 76.61 47.7659 78.1589 51.4433 79.3141L57.4605 72.4497C55.3911 71.7717 53.379 70.9281 51.4433 69.9269Z" fill="url(#paint14_linear)"/>
<path d="M50.1994 58.4495C48.1886 57.3045 46.341 55.8909 44.7066 54.2473L32.8906 57.7455C35.2427 60.1597 37.9206 62.2285 40.8457 63.8911C44.1963 65.8043 47.7397 67.3531 51.4159 68.5114L57.4332 61.6397C54.9195 60.8291 52.4955 59.7601 50.1994 58.4495Z" fill="#FF7A00"/>
<path d="M51.4453 79.3212V68.5113L57.4626 61.6396V72.4569L51.4453 79.3212Z" fill="url(#paint15_linear)"/>
<path d="M54.3867 69.3843V80.2015C62.8225 82.4117 71.562 83.2095 80.2551 82.5629V71.7531L54.3867 69.3843Z" fill="#FF7A00"/>
<path d="M54.3867 69.3843V80.2015C62.8225 82.4117 71.562 83.2095 80.2551 82.5629V71.7531L54.3867 69.3843Z" fill="url(#paint16_linear)"/>
<path d="M60.3976 62.5122L54.373 69.3839C62.809 71.593 71.548 72.3932 80.2414 71.7527L78.1871 64.1476C72.2089 64.538 66.2067 63.9862 60.3976 62.5122Z" fill="#FF7A00"/>
<path d="M99.8223 68.5479L109.205 74.0042C115.492 70.0953 119.462 65.3724 121.094 60.4368V49.627L107.981 59.2341C106.801 62.6149 104.062 65.8418 99.8223 68.5479Z" fill="#FF7A00"/>
<path d="M99.8223 68.5479L109.205 74.0042C115.492 70.0953 119.462 65.3724 121.094 60.4368V49.627L107.981 59.2341C106.801 62.6149 104.062 65.8418 99.8223 68.5479Z" fill="url(#paint17_linear)"/>
<path d="M99.8223 57.7381L109.205 63.1944C115.492 59.2782 119.462 54.5626 121.094 49.6271L107.981 48.4243C106.801 51.8052 104.062 55.0247 99.8223 57.7381Z" fill="#FF7A00"/>
<path d="M109.198 63.1943V74.0042L99.8223 68.5553V57.738L109.198 63.1943Z" fill="#FF7A00"/>
<path d="M109.198 63.1943V74.0042L99.8223 68.5553V57.738L109.198 63.1943Z" fill="url(#paint18_linear)"/>
<path d="M83.5273 71.4816V74.4151C82.8353 74.5251 82.1505 74.6205 81.4512 74.7011L83.5273 82.3135C92.0142 81.3601 100.129 79.05 106.839 75.3978V64.5513L83.5273 71.4816Z" fill="#FF7A00"/>
<path d="M83.5273 71.4816V74.4151C82.8353 74.5251 82.1505 74.6205 81.4512 74.7011L83.5273 82.3135C92.0142 81.3601 100.129 79.05 106.839 75.3978V64.5513L83.5273 71.4816Z" fill="url(#paint19_linear)"/>
<path d="M81.4512 63.8543L83.5273 71.4813C92.0142 70.5279 100.129 68.2251 106.839 64.573L97.4632 59.1167C92.4518 61.6511 87.0278 63.2559 81.4512 63.8543Z" fill="#FF7A00"/>
<path d="M83.5273 71.4595V82.2694L81.4512 74.6717V63.8545L83.5273 71.4595Z" fill="#FF7A00"/>
<path d="M83.5273 71.4595V82.2694L81.4512 74.6717V63.8545L83.5273 71.4595Z" fill="url(#paint20_linear)"/>
<path fill-rule="evenodd" clip-rule="evenodd" d="M66.2132 35.1879C70.5756 33.0703 74.9824 31.9484 79.0016 33.8831C81.9472 35.2962 82.4302 36.8879 81.5416 38.4641C84.8876 37.2783 88.1827 37.1296 91.4379 39.0049C91.7586 39.1896 92.0789 39.3941 92.3989 39.6191C94.014 40.7543 94.7287 41.8585 94.7463 42.9584C94.7468 42.9862 94.7468 43.0141 94.7463 43.0419C94.7198 44.7065 93.1077 46.3627 90.6149 48.1027C90.2776 48.3382 89.9241 48.5752 89.5562 48.814L94.6881 51.8108L91.58 53.6098L89.0982 52.1603L86.5172 50.6529C85.7124 51.1194 84.8806 51.593 84.0105 52.0761L89.0982 55.0458L85.9927 56.8424L80.8494 53.8417C80.5569 54.0088 80.2609 54.1764 79.9629 54.3452C79.5153 54.5987 79.063 54.8549 78.6106 55.1161L74.5656 57.4571L71.4874 54.9423C71.4874 54.9423 73.8224 53.6325 73.7476 53.6351C74.6257 53.1251 74.2296 52.6232 73.8904 52.3609L71.4874 50.9582L59.963 44.2308C59.2159 43.9332 58.0784 43.7455 56.8189 44.4739C56.815 44.4273 54.5632 45.781 54.5632 45.781L51.2571 43.8522L55.5459 41.3721L55.562 41.381C56.206 41.0078 56.8545 40.6181 57.5138 40.2207L57.3821 40.1438L52.4323 37.2531L55.5391 35.4553L60.5215 38.3643C61.3349 37.8744 62.1541 37.3816 62.9712 36.9087L58.0209 34.0193L61.129 32.2203L63.2865 33.4796L66.2132 35.1879ZM85.6475 42.8177C89.1745 44.8747 83.535 48.0489 80.9546 49.5013L80.9534 49.502C80.7217 49.6324 80.5147 49.7489 80.3413 49.8494L73.5293 45.8721C73.7411 45.7496 73.9923 45.5972 74.2769 45.4245C76.8236 43.8795 82.0426 40.7132 85.6475 42.8177ZM74.5899 38.0436C77.7938 39.9148 73.0862 42.5509 70.9281 43.7594L70.9277 43.7596C70.7317 43.8693 70.5568 43.9673 70.4107 44.0518L64.232 40.4449C64.4094 40.3422 64.6196 40.214 64.8578 40.0686C66.9755 38.7764 71.3118 36.1305 74.5899 38.0436Z" fill="url(#paint21_linear)"/>
<path d="M58.0209 34.0193L61.129 32.2203L63.2865 33.4796L63.2865 30.3182L58.0209 30.3182L58.0209 33.5303L58.0209 34.0193Z" fill="url(#paint22_linear)"/>
<path d="M52.4323 37.2531L55.5391 35.4553L60.5215 38.3643C61.3349 37.8744 62.1541 37.3816 62.9712 36.9087L58.0209 34.0193L58.0209 33.5303L52.4323 33.5303L52.4323 37.2531Z" fill="url(#paint23_linear)"/>
<path d="M51.2571 43.8522L55.5459 41.3721L55.562 41.381C56.206 41.0078 56.8545 40.6181 57.5138 40.2207L57.3821 40.1438L51.2571 40.1438L51.2571 43.8522Z" fill="url(#paint24_linear)"/>
<path d="M89.5562 48.814L94.6881 51.8108V48.1027L90.6149 48.1027C90.2776 48.3382 89.9241 48.5752 89.5562 48.814Z" fill="url(#paint25_linear)"/>
<path d="M92.3989 39.6191C94.014 40.7543 94.7287 41.8585 94.7463 42.9584L94.7463 39.0049H91.4379C91.7586 39.1896 92.0789 39.3941 92.3989 39.6191Z" fill="url(#paint26_linear)"/>
<path d="M71.4874 54.9423C71.4874 54.9423 73.8224 53.6325 73.7476 53.6351C74.6257 53.1251 74.2296 52.6232 73.8904 52.3609L71.4874 50.9582L71.4874 54.9423Z" fill="url(#paint27_linear)"/>
<path d="M86.5172 50.6529C85.7124 51.1194 84.8806 51.593 84.0105 52.0761L89.0982 55.0458V52.1603L86.5172 50.6529Z" fill="url(#paint28_linear)"/>
<path fill-rule="evenodd" clip-rule="evenodd" d="M66.2134 31.4796C70.5758 29.3619 74.9826 28.2401 79.0018 30.1748C81.9474 31.5878 82.4304 33.1796 81.5419 34.7558C85.2175 33.4531 88.8318 33.4021 92.3991 35.9107C96.8307 39.0255 94.4838 41.9072 89.5565 45.1057L94.6883 48.1024L91.5803 49.9014L86.5174 46.9445C85.7127 47.4111 84.8809 47.8846 84.0108 48.3677L89.0985 51.3375L85.9929 53.1341L80.8496 50.1333C80.5571 50.3004 80.2612 50.468 79.9631 50.6369C79.5155 50.8904 79.0632 51.1465 78.6108 51.4077L74.5658 53.7487L71.4876 51.234C71.4876 51.234 73.8227 49.9242 73.7478 49.9267C74.6259 49.4168 74.2299 48.9148 73.8906 48.6526L59.9633 40.5224C59.2161 40.2248 58.0786 40.0372 56.8192 40.7656C56.8153 40.7189 54.5634 42.0727 54.5634 42.0727L51.2574 40.1438L55.5461 37.6637L55.5623 37.6727C56.2063 37.2995 56.8547 36.9098 57.514 36.5123L52.4325 33.5448L55.5394 31.747L60.5218 34.6559C61.3352 34.166 62.1544 33.6733 62.9714 33.2003L58.0211 30.3109L61.1292 28.5119L66.2134 31.4796ZM85.6478 39.1094C89.1748 41.1664 83.5353 44.3406 80.9549 45.7929L80.9536 45.7936C80.7219 45.924 80.515 46.0405 80.3416 46.1411L73.5295 42.1638C73.7414 42.0412 73.9926 41.8888 74.2772 41.7162C76.8238 40.1711 82.0429 37.0048 85.6478 39.1094ZM74.5901 34.3352C77.794 36.2064 73.0865 38.8425 70.9283 40.051L70.9279 40.0512C70.732 40.161 70.557 40.2589 70.4109 40.3435L64.2322 36.7366C64.4096 36.6339 64.6198 36.5056 64.858 36.3603C66.9758 35.068 71.3121 32.4221 74.5901 34.3352Z" fill="url(#paint29_linear)"/>
<path d="M88.523 26.2103L94.5475 19.3386C86.1117 17.1285 77.3722 16.3306 68.6791 16.9772L70.748 24.5456C76.7229 24.1664 82.7201 24.728 88.523 26.2103Z" fill="url(#paint30_linear)"/>
<path d="M108.512 46.5467C113.619 47.0078 116.482 47.2663 121.589 47.7274C122.652 42.6451 121.305 37.4162 117.524 32.6933L105.693 36.1915C108.214 39.455 109.205 43.0265 108.512 46.5467Z" fill="url(#paint31_linear)"/>
<path d="M67.4844 24.8756L65.4082 17.2559C56.6009 18.2532 48.5366 20.6954 42.0968 24.1862L51.4505 29.6205C56.4724 27.0917 61.9021 25.4849 67.4844 24.8756Z" fill="url(#paint32_linear)"/>
<path d="M49.1121 30.9846L39.7365 25.5356C33.4497 29.4445 29.4795 34.1674 27.8477 39.0956L40.9604 40.3057C42.1332 36.9249 44.8723 33.698 49.1121 30.9846Z" fill="url(#paint33_linear)"/>
<path d="M40.4213 42.1978L27.3086 40.9951C26.2451 46.0847 27.5928 51.3063 31.3736 56.0365L43.2041 52.531C40.7273 49.2675 39.7657 45.696 40.4213 42.1978Z" fill="url(#paint34_linear)"/>
<path d="M50.1975 58.4493C48.1868 57.3043 46.3391 55.8907 44.7048 54.2471L32.8888 57.7453C35.2409 60.1595 37.9188 62.2283 40.8438 63.8909C44.1945 65.8041 47.7379 67.3529 51.4141 68.5112L57.4314 61.6395C54.9177 60.8288 52.4936 59.7598 50.1975 58.4493Z" fill="url(#paint35_linear)"/>
<path d="M60.3963 62.5122L54.3717 69.3839C62.8077 71.593 71.5467 72.3932 80.2401 71.7526L78.1858 64.1476C72.2076 64.5379 66.2054 63.9861 60.3963 62.5122Z" fill="url(#paint36_linear)"/>
<path d="M99.8217 57.7379L109.205 63.1942C115.491 59.278 119.462 54.5624 121.093 49.6269L107.981 48.4241C106.801 51.805 104.061 55.0245 99.8217 57.7379Z" fill="url(#paint37_linear)"/>
<path d="M81.4494 63.8542L83.5256 71.4813C92.0124 70.5279 100.128 68.2251 106.837 64.5729L97.4614 59.1167C92.45 61.651 87.026 63.2559 81.4494 63.8542Z" fill="url(#paint38_linear)"/>
<path d="M91.6055 19.1916V31.2258C98.4575 34.1985 102.731 39.0648 102.828 44.4039C103.28 44.7996 103.908 45.5987 104.332 46.0261L108.787 44.7074C108.897 41.7707 107.859 38.8402 105.76 36.1232L111.875 34.3153C110.701 31.8337 109.474 29.607 108.2 28.8823C107.341 28.3864 106.466 27.4871 105.457 26.4503C105.169 26.154 104.869 25.8342 104.556 25.4999C101.851 22.6112 98.1258 18.6321 91.6055 19.1916Z" fill="url(#paint39_linear)"/>
<path d="M117.947 44.0754H121.939L121.917 55.2226C121.92 56.3359 121.811 57.4467 121.589 58.5375L121.094 58.491V49.627L110.367 57.4858L108.52 57.3128C109.176 53.8146 108.222 50.2504 105.701 46.9869V36.1697L117.532 43.5034C117.605 43.5987 117.672 43.694 117.739 43.7893C117.807 43.8847 117.874 43.9801 117.947 44.0754Z" fill="url(#paint40_linear)"/>
<path d="M108.515 46.5467C113.621 47.0078 116.484 47.2664 121.591 47.7275C122.654 42.6452 121.307 37.4163 117.526 32.6934L105.695 36.1916C108.216 39.4551 109.207 43.0266 108.515 46.5467Z" fill="url(#paint41_linear)"/>
<path d="M97.2589 12.375L91.2344 19.2393C93.7503 20.05 96.1768 21.119 98.4755 22.4295C100.484 23.5776 102.329 24.9936 103.961 26.639L115.777 23.1409C113.431 20.7223 110.755 18.6529 107.829 16.9952C104.48 15.0791 100.936 13.5301 97.2589 12.375Z" fill="url(#paint42_linear)"/>
<path d="M99.8223 57.7381L109.205 63.1944C115.492 59.2782 119.462 54.5626 121.094 49.6271L107.981 48.4243C106.801 51.8052 104.062 55.0247 99.8223 57.7381Z" fill="url(#paint43_linear)"/>
<path d="M103.971 26.6334L115.787 23.1279V33.209L105.698 36.3069V44.9181L103.971 45.3183V26.6334Z" fill="url(#paint44_linear)"/>
</g>
<defs>
<linearGradient id="paint0_linear" x1="74.4748" y1="29.9377" x2="74.4748" y2="91.3191" gradientUnits="userSpaceOnUse">
<stop stop-color="#FFB800"/>
<stop offset="1" stop-color="#FF7A00"/>
</linearGradient>
<linearGradient id="paint1_linear" x1="74.4724" y1="25.1062" x2="74.4724" y2="86.5243" gradientUnits="userSpaceOnUse">
<stop stop-color="#FFC700"/>
<stop offset="1" stop-color="#FFB800"/>
</linearGradient>
<linearGradient id="paint2_linear" x1="81.6139" y1="20.8792" x2="81.6139" y2="37.0131" gradientUnits="userSpaceOnUse">
<stop stop-color="#FFB800"/>
<stop offset="1" stop-color="#FF7A00"/>
</linearGradient>
<linearGradient id="paint3_linear" x1="69.7141" y1="16.9773" x2="69.7141" y2="35.3849" gradientUnits="userSpaceOnUse">
<stop stop-color="#FFB800"/>
<stop offset="1" stop-color="#FF7A00"/>
</linearGradient>
<linearGradient id="paint4_linear" x1="91.5357" y1="19.3386" x2="91.5357" y2="37.0275" gradientUnits="userSpaceOnUse">
<stop stop-color="#FFB800"/>
<stop offset="1" stop-color="#FF7A00"/>
</linearGradient>
<linearGradient id="paint5_linear" x1="115.052" y1="46.5249" x2="115.052" y2="58.5448" gradientUnits="userSpaceOnUse">
<stop stop-color="#FFB800"/>
<stop offset="1" stop-color="#FF7A00"/>
</linearGradient>
<linearGradient id="paint6_linear" x1="54.7873" y1="23.615" x2="54.7873" y2="40.4381" gradientUnits="userSpaceOnUse">
<stop stop-color="#FFB800"/>
<stop offset="1" stop-color="#FF7A00"/>
</linearGradient>
<linearGradient id="paint7_linear" x1="46.7667" y1="24.1863" x2="46.7667" y2="40.4378" gradientUnits="userSpaceOnUse">
<stop stop-color="#FFB800"/>
<stop offset="1" stop-color="#FF7A00"/>
</linearGradient>
<linearGradient id="paint8_linear" x1="38.4964" y1="30.9849" x2="38.4964" y2="51.1159" gradientUnits="userSpaceOnUse">
<stop stop-color="#FFB800"/>
<stop offset="1" stop-color="#FF7A00"/>
</linearGradient>
<linearGradient id="paint9_linear" x1="34.3914" y1="39.0959" x2="34.3914" y2="51.1159" gradientUnits="userSpaceOnUse">
<stop stop-color="#FFB800"/>
<stop offset="1" stop-color="#FF7A00"/>
</linearGradient>
<linearGradient id="paint10_linear" x1="35.0968" y1="41.8459" x2="35.0968" y2="66.8466" gradientUnits="userSpaceOnUse">
<stop stop-color="#FFB800"/>
<stop offset="1" stop-color="#FF7A00"/>
</linearGradient>
<linearGradient id="paint11_linear" x1="37.3274" y1="52.5312" x2="37.3274" y2="66.8466" gradientUnits="userSpaceOnUse">
<stop stop-color="#FFB800"/>
<stop offset="1" stop-color="#FF7A00"/>
</linearGradient>
<linearGradient id="paint12_linear" x1="74.4689" y1="44.3469" x2="74.4689" y2="71.6595" gradientUnits="userSpaceOnUse">
<stop stop-color="#FFB800"/>
<stop offset="1" stop-color="#FF7A00"/>
</linearGradient>
<linearGradient id="paint13_linear" x1="74.4731" y1="27.8752" x2="74.4731" y2="60.8476" gradientUnits="userSpaceOnUse">
<stop stop-color="#FFC700"/>
<stop offset="1" stop-color="#FFB800"/>
</linearGradient>
<linearGradient id="paint14_linear" x1="45.1892" y1="57.7456" x2="45.1892" y2="79.3141" gradientUnits="userSpaceOnUse">
<stop stop-color="#FFB800"/>
<stop offset="1" stop-color="#FF7A00"/>
</linearGradient>
<linearGradient id="paint15_linear" x1="54.4539" y1="61.6396" x2="54.4539" y2="79.3212" gradientUnits="userSpaceOnUse">
<stop stop-color="#FFB800"/>
<stop offset="1" stop-color="#FF7A00"/>
</linearGradient>
<linearGradient id="paint16_linear" x1="67.3209" y1="69.3843" x2="67.3209" y2="82.7803" gradientUnits="userSpaceOnUse">
<stop stop-color="#FFB800"/>
<stop offset="1" stop-color="#FF7A00"/>
</linearGradient>
<linearGradient id="paint17_linear" x1="110.458" y1="49.627" x2="110.458" y2="74.0042" gradientUnits="userSpaceOnUse">
<stop stop-color="#FFB800"/>
<stop offset="1" stop-color="#FFA800"/>
</linearGradient>
<linearGradient id="paint18_linear" x1="104.51" y1="57.738" x2="104.51" y2="74.0042" gradientUnits="userSpaceOnUse">
<stop stop-color="#FFB800"/>
<stop offset="1" stop-color="#FF7A00"/>
</linearGradient>
<linearGradient id="paint19_linear" x1="94.145" y1="64.5513" x2="94.145" y2="82.3135" gradientUnits="userSpaceOnUse">
<stop stop-color="#FFB800"/>
<stop offset="1" stop-color="#FF7A00"/>
</linearGradient>
<linearGradient id="paint20_linear" x1="82.4893" y1="63.8545" x2="82.4893" y2="82.2694" gradientUnits="userSpaceOnUse">
<stop stop-color="#FFB800"/>
<stop offset="1" stop-color="#FF7A00"/>
</linearGradient>
<linearGradient id="paint21_linear" x1="55.8967" y1="31.5168" x2="74.5074" y2="63.5393" gradientUnits="userSpaceOnUse">
<stop stop-color="#FFB800"/>
<stop offset="1" stop-color="#FF7A00"/>
</linearGradient>
<linearGradient id="paint22_linear" x1="55.8967" y1="31.5168" x2="74.5074" y2="63.5393" gradientUnits="userSpaceOnUse">
<stop stop-color="#FFB800"/>
<stop offset="1" stop-color="#FF7A00"/>
</linearGradient>
<linearGradient id="paint23_linear" x1="55.8967" y1="31.5168" x2="74.5074" y2="63.5393" gradientUnits="userSpaceOnUse">
<stop stop-color="#FFB800"/>
<stop offset="1" stop-color="#FF7A00"/>
</linearGradient>
<linearGradient id="paint24_linear" x1="55.8967" y1="31.5168" x2="74.5074" y2="63.5393" gradientUnits="userSpaceOnUse">
<stop stop-color="#FFB800"/>
<stop offset="1" stop-color="#FF7A00"/>
</linearGradient>
<linearGradient id="paint25_linear" x1="55.8967" y1="31.5168" x2="74.5074" y2="63.5393" gradientUnits="userSpaceOnUse">
<stop stop-color="#FFB800"/>
<stop offset="1" stop-color="#FF7A00"/>
</linearGradient>
<linearGradient id="paint26_linear" x1="55.8967" y1="31.5168" x2="74.5074" y2="63.5393" gradientUnits="userSpaceOnUse">
<stop stop-color="#FFB800"/>
<stop offset="1" stop-color="#FF7A00"/>
</linearGradient>
<linearGradient id="paint27_linear" x1="55.8967" y1="31.5168" x2="74.5074" y2="63.5393" gradientUnits="userSpaceOnUse">
<stop stop-color="#FFB800"/>
<stop offset="1" stop-color="#FF7A00"/>
</linearGradient>
<linearGradient id="paint28_linear" x1="55.8967" y1="31.5168" x2="74.5074" y2="63.5393" gradientUnits="userSpaceOnUse">
<stop stop-color="#FFB800"/>
<stop offset="1" stop-color="#FF7A00"/>
</linearGradient>
<linearGradient id="paint29_linear" x1="58.2728" y1="30.1506" x2="75.2661" y2="59.3902" gradientUnits="userSpaceOnUse">
<stop stop-color="#FFC700"/>
<stop offset="1" stop-color="#FFB800"/>
</linearGradient>
<linearGradient id="paint30_linear" x1="48.7403" y1="32.9793" x2="94.3951" y2="71.1803" gradientUnits="userSpaceOnUse">
<stop stop-color="#FFD600"/>
<stop offset="1" stop-color="#FFA800"/>
</linearGradient>
<linearGradient id="paint31_linear" x1="48.7403" y1="32.9793" x2="94.3951" y2="71.1803" gradientUnits="userSpaceOnUse">
<stop stop-color="#FFD600"/>
<stop offset="1" stop-color="#FFA800"/>
</linearGradient>
<linearGradient id="paint32_linear" x1="48.7403" y1="32.9793" x2="94.3951" y2="71.1803" gradientUnits="userSpaceOnUse">
<stop stop-color="#FFD600"/>
<stop offset="1" stop-color="#FFA800"/>
</linearGradient>
<linearGradient id="paint33_linear" x1="48.7403" y1="32.9793" x2="94.3951" y2="71.1803" gradientUnits="userSpaceOnUse">
<stop stop-color="#FFD600"/>
<stop offset="1" stop-color="#FFA800"/>
</linearGradient>
<linearGradient id="paint34_linear" x1="48.7403" y1="32.9793" x2="94.3951" y2="71.1803" gradientUnits="userSpaceOnUse">
<stop stop-color="#FFD600"/>
<stop offset="1" stop-color="#FFA800"/>
</linearGradient>
<linearGradient id="paint35_linear" x1="48.7403" y1="32.9793" x2="94.3951" y2="71.1803" gradientUnits="userSpaceOnUse">
<stop stop-color="#FFD600"/>
<stop offset="1" stop-color="#FFA800"/>
</linearGradient>
<linearGradient id="paint36_linear" x1="48.7403" y1="32.9793" x2="94.3951" y2="71.1803" gradientUnits="userSpaceOnUse">
<stop stop-color="#FFD600"/>
<stop offset="1" stop-color="#FFA800"/>
</linearGradient>
<linearGradient id="paint37_linear" x1="48.7403" y1="32.9793" x2="94.3951" y2="71.1803" gradientUnits="userSpaceOnUse">
<stop stop-color="#FFD600"/>
<stop offset="1" stop-color="#FFA800"/>
</linearGradient>
<linearGradient id="paint38_linear" x1="48.7403" y1="32.9793" x2="94.3951" y2="71.1803" gradientUnits="userSpaceOnUse">
<stop stop-color="#FFD600"/>
<stop offset="1" stop-color="#FFA800"/>
</linearGradient>
<linearGradient id="paint39_linear" x1="103.877" y1="27.75" x2="103.877" y2="46.0262" gradientUnits="userSpaceOnUse">
<stop stop-color="#FFB800"/>
<stop offset="1" stop-color="#FFA800"/>
</linearGradient>
<linearGradient id="paint40_linear" x1="113.82" y1="36.1697" x2="113.82" y2="58.5375" gradientUnits="userSpaceOnUse">
<stop stop-color="#FFB800"/>
<stop offset="1" stop-color="#FFA800"/>
</linearGradient>
<linearGradient id="paint41_linear" x1="48.7422" y1="32.9794" x2="94.3969" y2="71.1804" gradientUnits="userSpaceOnUse">
<stop stop-color="#FFD600"/>
<stop offset="1" stop-color="#FFA800"/>
</linearGradient>
<linearGradient id="paint42_linear" x1="48.509" y1="25.1357" x2="94.1637" y2="63.3367" gradientUnits="userSpaceOnUse">
<stop stop-color="#FFD600"/>
<stop offset="1" stop-color="#FFA800"/>
</linearGradient>
<linearGradient id="paint43_linear" x1="48.7411" y1="32.9795" x2="94.3958" y2="71.1806" gradientUnits="userSpaceOnUse">
<stop stop-color="#FFD600"/>
<stop offset="1" stop-color="#FFA800"/>
</linearGradient>
<linearGradient id="paint44_linear" x1="110.24" y1="30.9607" x2="110.24" y2="45.2762" gradientUnits="userSpaceOnUse">
<stop stop-color="#FFB800"/>
<stop offset="1" stop-color="#FFA800"/>
</linearGradient>
</defs>
</svg>
