<svg width="24" height="24" viewBox="0 0 24 24" fill="none" xmlns="http://www.w3.org/2000/svg">
<path d="M7.3399 10.085L12.0007 5.42434L16.6639 10.0874L19.3759 7.37545L12.0007 0L4.62793 7.37298L7.3399 10.085Z" fill="#F3BA2F"/>
<path d="M5.42383 11.9995L2.71191 9.2876L-0.00013966 11.9997L2.71178 14.7116L5.42383 11.9995Z" fill="#F3BA2F"/>
<path d="M7.33997 13.9149L12.0008 18.5755L16.6638 13.9126L19.3773 16.6231L19.376 16.6246L12.0008 23.9998L4.62781 16.627L4.62402 16.6233L7.33997 13.9149Z" fill="#F3BA2F"/>
<path d="M21.2879 14.713L24 12.001L21.2881 9.28904L18.576 12.0011L21.2879 14.713Z" fill="#F3BA2F"/>
<path d="M14.7512 11.9986H14.7523L12.0004 9.24658L9.96662 11.2803H9.96643L9.7329 11.5141L9.25086 11.9961L9.24707 11.9999L9.25086 12.0039L12.0004 14.7534L14.7523 12.0014L14.7536 11.9999L14.7512 11.9986Z" fill="#F3BA2F"/>
</svg>
