<svg width="24" height="24" viewBox="0 0 24 24" fill="none" xmlns="http://www.w3.org/2000/svg">
<g clip-path="url(#clip0)">
<path d="M24.0008 11.9999C24.0008 18.6274 18.6284 24 12.001 24C5.37353 24 0.000976562 18.6274 0.000976562 11.9999C0.000976562 5.37255 5.37353 0 12.001 0C18.6283 0 24.0008 5.37255 24.0008 11.9999" fill="#325A98"/>
<path d="M21.4524 12.0002C21.4524 17.2202 17.2205 21.4524 12.0002 21.4524C6.78001 21.4524 2.54785 17.2202 2.54785 12.0002C2.54785 6.77979 6.78001 2.54785 12.0002 2.54785C17.2206 2.54785 21.4524 6.77972 21.4524 12.0002Z" fill="#325A98"/>
<path d="M11.2993 15.2056L12.0787 12.2707L13.924 11.5965L14.383 9.87169L14.3674 9.8289L12.5509 10.4925L13.8597 5.56445H10.148L8.43639 11.9957L7.00735 12.5177L6.53516 14.2959L7.9631 13.7743L6.95436 17.5645H16.8327L17.466 15.2056H11.2993Z" fill="white"/>
</g>
<defs>
<clipPath id="clip0">
<rect width="24" height="24" fill="white"/>
</clipPath>
</defs>
</svg>
