<svg width="149" height="108" viewBox="0 0 149 108" fill="none" xmlns="http://www.w3.org/2000/svg">
<path d="M127.944 55.9425C126.945 52.4622 125.16 49.2617 122.729 46.5911C119.861 43.4199 116.503 40.7357 112.785 38.642C108.465 36.1787 103.872 34.238 99.1005 32.8602C93.8498 31.3337 88.4632 30.329 83.0178 29.8605C77.3905 29.343 71.7281 29.343 66.1008 29.8605C60.6531 30.3297 55.2641 31.3344 50.0107 32.8602C45.2367 34.2382 40.6411 36.1789 36.3192 38.642C32.6 40.7341 29.2417 43.4185 26.3746 46.5911C23.9434 49.2617 22.1587 52.4622 21.1602 55.9425C20.2773 59.1619 20.2773 62.5619 21.1602 65.7813C22.157 69.26 23.942 72.4586 26.3746 75.1252C29.2411 78.3004 32.5995 80.9874 36.3192 83.0818C40.6332 85.5431 45.2215 87.4813 49.9884 88.8561C55.2448 90.3796 60.6361 91.3843 66.0859 91.8558C71.7135 92.3657 77.3753 92.3657 83.0029 91.8558C88.4528 91.3843 93.844 90.3796 99.1005 88.8561C103.869 87.482 108.457 85.5411 112.77 83.0743C116.495 80.9842 119.858 78.2997 122.729 75.1252C125.162 72.4586 126.947 69.26 127.944 65.7813C128.826 62.5619 128.826 59.1619 127.944 55.9425Z" fill="url(#paint0_linear)"/>
<path d="M20.4883 55.9351H128.598V61.4844L20.4883 61.1769V55.9351Z" fill="#FFA901"/>
<path d="M50.025 27.9484C55.2774 26.4124 60.6665 25.3977 66.1152 24.9187C71.7326 24.4031 77.3849 24.4031 83.0023 24.9187C88.4487 25.397 93.8354 26.3893 99.085 27.9259C103.858 29.3006 108.451 31.2415 112.769 33.7077C116.494 35.8066 119.858 38.4986 122.729 41.6793C125.16 44.3527 126.944 47.5557 127.943 51.0382C128.826 54.255 128.826 57.6526 127.943 60.8695C126.945 64.3499 125.16 67.5505 122.729 70.2209C119.856 73.3904 116.496 76.0744 112.777 78.17C108.461 80.6306 103.866 82.5712 99.0999 83.9518C93.8435 85.4754 88.4522 86.48 83.0023 86.9515C77.3848 87.4634 71.7327 87.4634 66.1152 86.9515C60.6653 86.48 55.274 85.4754 50.0176 83.9518C45.2644 82.5685 40.6221 80.6279 36.3186 78.17C32.5983 76.0763 29.2377 73.3922 26.3666 70.2209C23.9352 67.5505 22.1505 64.3274 21.1522 60.847C20.2696 57.6301 20.2696 54.255 21.1522 51.0382C22.1507 47.5557 23.9353 44.3452 26.3666 41.6717C29.2326 38.496 32.591 35.809 36.3112 33.7152C40.628 31.2581 45.2561 29.3173 50.025 27.9484Z" fill="url(#paint1_linear)"/>
<path d="M26.9319 43.7642V59.3473C26.5397 57.9234 26.3392 56.453 26.3359 54.9753V43.7642H26.9319Z" fill="#FF7A00"/>
<path d="M26.9319 43.7642V59.3473C26.5397 57.9234 26.3392 56.453 26.3359 54.9753V43.7642H26.9319Z" fill="url(#paint2_linear)"/>
<path d="M114.915 51.2484L107.771 57.9976L102.341 63.1645L97.1635 68.0689L96.4707 68.7213V79.9175C100.725 78.69 104.821 76.9608 108.672 74.7656C111.991 72.8923 114.989 70.4946 117.552 67.6639C119.719 65.2863 121.308 62.4341 122.193 59.3324C122.587 57.9089 122.79 56.4384 122.796 54.9604V43.7717L114.915 51.2484Z" fill="#FF7A00"/>
<path d="M114.915 51.2484L107.771 57.9976L102.341 63.1645L97.1635 68.0689L96.4707 68.7213V79.9175C100.725 78.69 104.821 76.9608 108.672 74.7656C111.991 72.8923 114.989 70.4946 117.552 67.6639C119.719 65.2863 121.308 62.4341 122.193 59.3324C122.587 57.9089 122.79 56.4384 122.796 54.9604V43.7717L114.915 51.2484Z" fill="url(#paint3_linear)"/>
<path d="M74.5511 43.7554L26.9322 48.1585C26.1424 45.2904 26.1424 42.2451 26.9322 39.3771C27.8268 36.2719 29.4199 33.4008 31.5879 31.0155C34.1495 28.1989 37.1452 25.8161 40.4598 23.9589C44.3103 21.7599 48.4061 20.028 52.6615 18.7994C57.3443 17.4281 62.1498 16.5238 67.0085 16.0998C72.0359 15.6334 77.1102 15.6334 82.1377 16.0998C86.9838 16.5263 91.7767 17.4305 96.4474 18.7994C100.701 20.0261 104.797 21.7677 108.649 23.9589C111.965 25.8272 114.96 28.2199 117.521 31.0455C119.686 33.4329 121.279 36.2882 122.177 39.392C122.575 40.8352 122.771 42.2886 122.773 43.7865C122.767 45.2669 122.564 46.7399 122.169 48.166C121.283 51.2669 119.694 54.1188 117.528 56.4976C114.966 59.3282 111.968 61.7259 108.649 63.5992C104.797 65.7919 100.702 67.5187 96.4474 68.7436L74.5511 43.7554Z" fill="url(#paint4_linear)"/>
<path d="M96.4548 68.7512V79.9474L74.5469 54.9603V43.7566L96.4548 68.7512Z" fill="url(#paint5_linear)"/>
<path d="M74.5465 54.9603L26.9316 59.3623V48.1586L74.5465 43.7566V54.9603Z" fill="#FF7A00"/>
<path d="M74.5465 54.9603L26.9316 59.3623V48.1586L74.5465 43.7566V54.9603Z" fill="url(#paint6_linear)"/>
<path fill-rule="evenodd" clip-rule="evenodd" d="M65.4633 32.042C69.9241 29.8765 74.4303 28.7294 78.5402 30.7077C81.5522 32.1527 82.0461 33.7803 81.1375 35.3921C84.559 34.1795 87.9284 34.0275 91.257 35.945C91.585 36.1339 91.9125 36.343 92.2397 36.573C93.8912 37.7338 94.6221 38.863 94.6401 39.9877C94.6405 40.0162 94.6405 40.0446 94.6401 40.0731C94.6129 41.7752 92.9645 43.4688 90.4155 45.2481C90.0705 45.4889 89.7091 45.7312 89.3329 45.9754L94.5805 49.0397L91.4024 50.8793L88.8646 49.3972L86.2253 47.8557C85.4024 48.3328 84.5518 48.817 83.6621 49.3111L88.8646 52.3478L85.689 54.1849L80.4297 51.1164C80.1306 51.2873 79.8279 51.4587 79.5232 51.6314C79.0655 51.8906 78.603 52.1525 78.1404 52.4196L74.0042 54.8134L70.8565 52.2419C70.8565 52.2419 73.2442 50.9026 73.1677 50.9052C74.0656 50.3837 73.6606 49.8705 73.3137 49.6023L70.8565 48.1679L59.0722 41.2888C58.3082 40.9845 57.1451 40.7926 55.8572 41.5374C55.8532 41.4897 53.5505 42.874 53.5505 42.874L50.1699 40.9016L54.5554 38.3656L54.5719 38.3747C55.2305 37.9931 55.8935 37.5946 56.5677 37.1882L56.433 37.1096L51.3716 34.1537L54.5485 32.3154L59.6433 35.2899C60.475 34.789 61.3127 34.2851 62.1482 33.8015L57.0863 30.8469L60.2644 29.0074L62.4706 30.2951L65.4633 32.042ZM85.336 39.8439C88.9426 41.9472 83.1759 45.193 80.5373 46.6782L80.536 46.6789C80.2991 46.8122 80.0875 46.9313 79.9101 47.0342L72.9445 42.9671C73.1611 42.8418 73.418 42.686 73.709 42.5094C76.3131 40.9296 81.6498 37.6918 85.336 39.8439ZM74.029 34.962C77.3051 36.8754 72.4914 39.571 70.2846 40.8067L70.2842 40.8069C70.0838 40.9191 69.9049 41.0193 69.7555 41.1058L63.4374 37.4175C63.6189 37.3125 63.8338 37.1814 64.0774 37.0327C66.2429 35.7114 70.677 33.0058 74.029 34.962Z" fill="url(#paint7_linear)"/>
<path d="M57.0863 30.8469L60.2644 29.0074L62.4706 30.2951L62.4706 27.0623L57.0863 27.0623L57.0863 30.3469L57.0863 30.8469Z" fill="url(#paint8_linear)"/>
<path d="M51.3716 34.1537L54.5485 32.3154L59.6433 35.2899C60.475 34.789 61.3127 34.2851 62.1482 33.8015L57.0863 30.8469L57.0863 30.3469L51.3716 30.3469L51.3716 34.1537Z" fill="url(#paint9_linear)"/>
<path d="M50.1699 40.9016L54.5554 38.3656L54.5719 38.3747C55.2305 37.9931 55.8935 37.5946 56.5677 37.1882L56.433 37.1096L50.1699 37.1096L50.1699 40.9016Z" fill="url(#paint10_linear)"/>
<path d="M89.3329 45.9754L94.5805 49.0397L94.5805 45.2481H90.4155C90.0705 45.4889 89.7091 45.7312 89.3329 45.9754Z" fill="url(#paint11_linear)"/>
<path d="M92.2397 36.573C93.8912 37.7338 94.6221 38.863 94.6401 39.9877L94.6401 35.945H91.257C91.585 36.1339 91.9125 36.343 92.2397 36.573Z" fill="url(#paint12_linear)"/>
<path d="M70.8565 52.2419C70.8565 52.2419 73.2442 50.9026 73.1677 50.9052C74.0656 50.3837 73.6606 49.8705 73.3137 49.6023L70.8565 48.1679L70.8565 52.2419Z" fill="url(#paint13_linear)"/>
<path d="M86.2253 47.8557C85.4024 48.3328 84.5518 48.817 83.6621 49.3111L88.8646 52.3478L88.8646 49.3972L86.2253 47.8557Z" fill="url(#paint14_linear)"/>
<path fill-rule="evenodd" clip-rule="evenodd" d="M65.4636 28.2501C69.9244 26.0847 74.4306 24.9375 78.5405 26.9159C81.5525 28.3608 82.0464 29.9884 81.1378 31.6002C84.8964 30.2681 88.5921 30.216 92.24 32.7812C96.7715 35.9662 94.3717 38.913 89.3332 42.1835L94.5808 45.2479L91.4026 47.0875L86.2256 44.0639C85.4027 44.541 84.5521 45.0252 83.6624 45.5192L88.8649 48.5559L85.6893 50.393L80.4299 47.3246C80.1308 47.4955 79.8282 47.6669 79.5234 47.8395C79.0658 48.0987 78.6032 48.3607 78.1406 48.6278L74.0044 51.0216L70.8568 48.4501C70.8568 48.4501 73.2445 47.1107 73.1679 47.1133C74.0659 46.5919 73.6609 46.0786 73.314 45.8105L59.0725 37.4969C58.3085 37.1926 57.1453 37.0007 55.8575 37.7455C55.8534 37.6978 53.5508 39.0822 53.5508 39.0822L50.1702 37.1098L54.5557 34.5737L54.5722 34.5829C55.2307 34.2013 55.8938 33.8028 56.568 33.3964L51.3719 30.3619L54.5488 28.5235L59.6436 31.4981C60.4753 30.9972 61.313 30.4933 62.1485 30.0097L57.0865 27.0551L60.2647 25.2155L65.4636 28.2501ZM85.3363 36.052C88.9429 38.1554 83.1762 41.4012 80.5376 42.8863L80.5363 42.887C80.2994 43.0204 80.0877 43.1395 79.9104 43.2423L72.9447 39.1753C73.1614 39.05 73.4182 38.8941 73.7092 38.7176C76.3133 37.1377 81.6501 33.9 85.3363 36.052ZM74.0292 31.1701C77.3054 33.0836 72.4917 35.7791 70.2848 37.0149L70.2845 37.0151C70.0841 37.1273 69.9052 37.2275 69.7558 37.3139L63.4377 33.6257C63.6191 33.5207 63.834 33.3895 64.0776 33.2409C66.2432 31.9195 70.6773 29.2139 74.0292 31.1701Z" fill="url(#paint15_linear)"/>
<defs>
<linearGradient id="paint0_linear" x1="74.5519" y1="29.4724" x2="74.5519" y2="92.2383" gradientUnits="userSpaceOnUse">
<stop stop-color="#FFB800"/>
<stop offset="1" stop-color="#FF7A00"/>
</linearGradient>
<linearGradient id="paint1_linear" x1="74.5476" y1="24.532" x2="74.5476" y2="87.3354" gradientUnits="userSpaceOnUse">
<stop stop-color="#FFC700"/>
<stop offset="1" stop-color="#FFB800"/>
</linearGradient>
<linearGradient id="paint2_linear" x1="26.6339" y1="43.7642" x2="26.6339" y2="59.3473" gradientUnits="userSpaceOnUse">
<stop stop-color="#FFB800"/>
<stop offset="1" stop-color="#FF7A00"/>
</linearGradient>
<linearGradient id="paint3_linear" x1="109.633" y1="43.7717" x2="109.633" y2="79.9175" gradientUnits="userSpaceOnUse">
<stop stop-color="#FFB800"/>
<stop offset="1" stop-color="#FF7A00"/>
</linearGradient>
<linearGradient id="paint4_linear" x1="19.2186" y1="36.1696" x2="98.3046" y2="13.5941" gradientUnits="userSpaceOnUse">
<stop stop-color="#FFD600"/>
<stop offset="1" stop-color="#FFA800"/>
</linearGradient>
<linearGradient id="paint5_linear" x1="85.5008" y1="43.7566" x2="85.5008" y2="79.9474" gradientUnits="userSpaceOnUse">
<stop stop-color="#FFB800"/>
<stop offset="1" stop-color="#FF7A00"/>
</linearGradient>
<linearGradient id="paint6_linear" x1="50.7391" y1="43.7566" x2="50.7391" y2="59.3623" gradientUnits="userSpaceOnUse">
<stop stop-color="#FFB800"/>
<stop offset="1" stop-color="#FF7A00"/>
</linearGradient>
<linearGradient id="paint7_linear" x1="54.9142" y1="28.288" x2="73.9446" y2="61.0328" gradientUnits="userSpaceOnUse">
<stop stop-color="#FFB800"/>
<stop offset="1" stop-color="#FF7A00"/>
</linearGradient>
<linearGradient id="paint8_linear" x1="54.9142" y1="28.288" x2="73.9446" y2="61.0328" gradientUnits="userSpaceOnUse">
<stop stop-color="#FFB800"/>
<stop offset="1" stop-color="#FF7A00"/>
</linearGradient>
<linearGradient id="paint9_linear" x1="54.9142" y1="28.288" x2="73.9446" y2="61.0328" gradientUnits="userSpaceOnUse">
<stop stop-color="#FFB800"/>
<stop offset="1" stop-color="#FF7A00"/>
</linearGradient>
<linearGradient id="paint10_linear" x1="54.9142" y1="28.288" x2="73.9446" y2="61.0328" gradientUnits="userSpaceOnUse">
<stop stop-color="#FFB800"/>
<stop offset="1" stop-color="#FF7A00"/>
</linearGradient>
<linearGradient id="paint11_linear" x1="54.9142" y1="28.288" x2="73.9446" y2="61.0328" gradientUnits="userSpaceOnUse">
<stop stop-color="#FFB800"/>
<stop offset="1" stop-color="#FF7A00"/>
</linearGradient>
<linearGradient id="paint12_linear" x1="54.9142" y1="28.288" x2="73.9446" y2="61.0328" gradientUnits="userSpaceOnUse">
<stop stop-color="#FFB800"/>
<stop offset="1" stop-color="#FF7A00"/>
</linearGradient>
<linearGradient id="paint13_linear" x1="54.9142" y1="28.288" x2="73.9446" y2="61.0328" gradientUnits="userSpaceOnUse">
<stop stop-color="#FFB800"/>
<stop offset="1" stop-color="#FF7A00"/>
</linearGradient>
<linearGradient id="paint14_linear" x1="54.9142" y1="28.288" x2="73.9446" y2="61.0328" gradientUnits="userSpaceOnUse">
<stop stop-color="#FFB800"/>
<stop offset="1" stop-color="#FF7A00"/>
</linearGradient>
<linearGradient id="paint15_linear" x1="57.3438" y1="26.8911" x2="74.7204" y2="56.7902" gradientUnits="userSpaceOnUse">
<stop stop-color="#FFC700"/>
<stop offset="1" stop-color="#FFB800"/>
</linearGradient>
</defs>
</svg>
