<svg width="149" height="108" viewBox="0 0 149 108" fill="none" xmlns="http://www.w3.org/2000/svg">
<g clip-path="url(#clip0)">
<path d="M109.142 45.7581C108.821 44.6396 108.248 43.6109 107.467 42.7526C106.545 41.7334 105.465 40.8707 104.27 40.1978C102.882 39.4061 101.406 38.7824 99.8723 38.3395C98.1848 37.8489 96.4535 37.526 94.7034 37.3755C92.8948 37.2092 91.0749 37.2092 89.2664 37.3755C87.5155 37.5263 85.7835 37.8492 84.095 38.3395C82.5607 38.7825 81.0837 39.4062 79.6946 40.1978C78.4993 40.8702 77.42 41.733 76.4985 42.7526C75.7171 43.6109 75.1435 44.6396 74.8226 45.7581C74.5388 46.7928 74.5388 47.8856 74.8226 48.9203C75.143 50.0384 75.7166 51.0663 76.4985 51.9234C77.4198 52.9439 78.4991 53.8075 79.6946 54.4806C81.0811 55.2717 82.5558 55.8946 84.0879 56.3365C85.7773 56.8261 87.51 57.149 89.2616 57.3005C91.0703 57.4644 92.8899 57.4644 94.6986 57.3005C96.4502 57.149 98.1829 56.8261 99.8723 56.3365C101.405 55.8948 102.88 55.271 104.266 54.4782C105.463 53.8065 106.544 52.9437 107.467 51.9234C108.248 51.0663 108.822 50.0384 109.142 48.9203C109.426 47.8856 109.426 46.7928 109.142 45.7581Z" fill="url(#paint0_linear)"/>
<path d="M74.6074 41.2622H109.353V46.7L74.6074 46.3987V41.2622Z" fill="url(#paint1_linear)"/>
<path d="M84.0998 32.2674C85.7879 31.7738 87.5199 31.4477 89.2711 31.2937C91.0765 31.128 92.8932 31.128 94.6986 31.2937C96.449 31.4475 98.1803 31.7664 99.8675 32.2602C101.401 32.702 102.878 33.3258 104.266 34.1185C105.463 34.7931 106.544 35.6583 107.466 36.6805C108.248 37.5397 108.821 38.5692 109.142 39.6884C109.426 40.7223 109.426 41.8143 109.142 42.8482C108.822 43.9668 108.248 44.9954 107.466 45.8537C106.543 46.8724 105.463 47.735 104.268 48.4085C102.881 49.1993 101.404 49.823 99.8723 50.2668C98.1829 50.7564 96.4502 51.0793 94.6986 51.2309C92.8931 51.3954 91.0766 51.3954 89.2711 51.2309C87.5196 51.0793 85.7868 50.7564 84.0974 50.2668C82.5698 49.8222 81.0777 49.1985 79.6946 48.4085C78.4989 47.7356 77.4188 46.8729 76.4961 45.8537C75.7146 44.9954 75.141 43.9595 74.8202 42.841C74.5365 41.8071 74.5365 40.7223 74.8202 39.6884C75.1411 38.5692 75.7146 37.5373 76.4961 36.6781C77.4172 35.6574 78.4966 34.7938 79.6922 34.1209C81.0796 33.3312 82.5671 32.7074 84.0998 32.2674Z" fill="url(#paint2_linear)"/>
<path d="M100.628 33.244C100.628 37.1665 95.8814 40.9305 94.0315 42.2483C94.0005 42.2704 93.9678 42.2883 93.9338 42.3022C93.9104 42.3117 93.8864 42.3193 93.8618 42.325C93.4662 42.4175 92.9222 42.0311 92.5801 41.3764C90.73 37.8357 85.9826 28.3679 85.9825 24.4453C85.9824 21.5924 87.1066 19.7312 88.8505 19.1665C88.863 19.1625 88.8755 19.1585 88.888 19.1546C90.1158 18.772 91.646 19.0267 93.305 20.0234C97.3493 22.4531 100.628 28.3721 100.628 33.244Z" fill="url(#paint3_linear)"/>
<path d="M92.5801 41.3764C90.73 37.8357 85.9826 28.3679 85.9825 24.4453C85.9824 21.5924 87.1066 19.7312 88.8505 19.1665L86.5002 19.9132L86.2663 20.9881L84.4688 25.8744L91.4469 43.0915L93.8618 42.325C93.4662 42.4175 92.9222 42.0311 92.5801 41.3764Z" fill="url(#paint4_linear)"/>
<path d="M98.7416 33.9962C98.7417 37.9189 93.8174 41.6832 91.8985 43.0012C91.4894 43.2822 90.802 42.8841 90.3929 42.1293C88.4737 38.5887 83.549 29.1208 83.5488 25.1981C83.5486 20.3261 86.9495 18.3461 91.1449 20.7757C95.3402 23.2052 98.7414 29.1242 98.7416 33.9962Z" fill="url(#paint5_linear)"/>
<path d="M95.4252 31.9278C95.4252 33.4562 94.7986 34.4515 93.8284 34.7478C93.3916 34.8811 92.8851 34.8728 92.3349 34.7077C92.0332 34.6171 91.7183 34.4794 91.3945 34.2921C89.1683 33.0041 87.3636 29.8573 87.3635 27.2636C87.3634 26.5798 87.4888 26.0027 87.7143 25.5472C87.9588 25.0533 88.3209 24.7023 88.7684 24.5131C88.7869 24.5053 88.8056 24.4977 88.8244 24.4905C89.522 24.2208 90.4175 24.3342 91.3941 24.8992C93.6203 26.1872 95.4251 29.334 95.4252 31.9278Z" fill="url(#paint6_linear)"/>
<path d="M92.3349 34.7077L92.6074 35.2479L93.8284 34.7478C93.3916 34.8811 92.8851 34.8728 92.3349 34.7077Z" fill="url(#paint7_linear)"/>
<path d="M87.7143 25.5472C87.9588 25.0533 88.3209 24.7023 88.7684 24.5131L87.4597 25.0425L87.7143 25.5472Z" fill="url(#paint8_linear)"/>
<ellipse rx="4.65035" ry="4.69661" transform="matrix(0.866784 0.501511 3.75383e-05 1 90.1482 30.0969)" fill="url(#paint9_linear)"/>
<path fill-rule="evenodd" clip-rule="evenodd" d="M92.152 29.725C92.3239 30.0249 92.3239 30.3498 92.152 30.4507L89.7812 31.842C89.7667 31.8505 89.7514 31.8572 89.7354 31.862C89.729 31.864 89.7226 31.8656 89.716 31.867C89.5448 31.9027 89.3103 31.746 89.1588 31.4817L88.0992 29.6335C87.9273 29.3336 87.9273 29.0088 88.0992 28.9079C88.2711 28.807 88.5497 28.9683 88.7217 29.2682L89.4699 30.5734L90.4997 29.9691L91.5295 29.3647C91.5432 29.3567 91.5574 29.3504 91.5723 29.3456C91.5805 29.343 91.5889 29.3408 91.5975 29.3392C91.7684 29.3057 92.0013 29.4621 92.152 29.725Z" fill="url(#paint10_linear)"/>
<path d="M89.1588 31.4817L88.0992 29.6335C87.9273 29.3336 87.9273 29.0088 88.0992 28.9079L87.1329 29.1503L88.6863 32.1302L89.716 31.867C89.5448 31.9027 89.3103 31.746 89.1588 31.4817Z" fill="url(#paint11_linear)"/>
<path d="M91.5295 29.3647C91.5432 29.3567 91.5574 29.3504 91.5723 29.3456L90.5735 29.602L90.4997 29.9691L91.5295 29.3647Z" fill="url(#paint12_linear)"/>
<path fill-rule="evenodd" clip-rule="evenodd" d="M91.1564 29.9777C91.3283 30.2775 91.3283 30.6024 91.1565 30.7033L88.7856 32.0946C88.6138 32.1955 88.3351 32.0342 88.1632 31.7343L87.1036 29.8861C86.9317 29.5862 86.9317 29.2614 87.1036 29.1605C87.2755 29.0596 87.5542 29.2209 87.7261 29.5208L88.4743 30.826L90.5339 29.6173C90.7058 29.5165 90.9845 29.6778 91.1564 29.9777Z" fill="url(#paint13_linear)"/>
<path d="M128.024 68.9321C127.609 67.4867 126.868 66.1574 125.859 65.0483C124.667 63.7312 123.273 62.6164 121.728 61.7468C119.934 60.7238 118.027 59.9177 116.045 59.3455C113.864 58.7115 111.627 58.2942 109.365 58.0997C107.028 57.8847 104.677 57.8847 102.339 58.0997C100.077 58.2945 97.8386 58.7118 95.6568 59.3455C93.674 59.9178 91.7653 60.7239 89.9703 61.7468C88.4257 62.6157 87.0309 63.7306 85.8401 65.0483C84.8304 66.1574 84.0892 67.4867 83.6744 68.9321C83.3078 70.2692 83.3078 71.6814 83.6744 73.0185C84.0885 74.4633 84.8298 75.7917 85.8401 76.8992C87.0307 78.218 88.4255 79.3339 89.9703 80.2038C91.7621 81.226 93.6677 82.031 95.6475 82.602C97.8306 83.2348 100.07 83.652 102.333 83.8478C104.671 84.0596 107.022 84.0596 109.359 83.8478C111.623 83.652 113.862 83.2348 116.045 82.602C118.025 82.0313 119.931 81.2252 121.722 80.2007C123.269 79.3326 124.666 78.2177 125.859 76.8992C126.869 75.7917 127.61 74.4633 128.024 73.0185C128.391 71.6814 128.391 70.2692 128.024 68.9321Z" fill="url(#paint14_linear)"/>
<path d="M83.3965 65.873H128.297V71.5506L83.3965 71.236V65.873Z" fill="url(#paint15_linear)"/>
<path d="M95.665 54.2495C97.8464 53.6116 100.085 53.1901 102.348 52.9912C104.681 52.777 107.028 52.777 109.361 52.9912C111.623 53.1898 113.86 53.6019 116.041 54.2401C118.023 54.8111 119.931 55.6172 121.724 56.6415C123.271 57.5132 124.668 58.6313 125.861 59.9523C126.87 61.0626 127.612 62.3929 128.026 63.8392C128.393 65.1753 128.393 66.5864 128.026 67.9224C127.612 69.3679 126.87 70.6972 125.861 71.8063C124.667 73.1227 123.272 74.2374 121.727 75.1078C119.935 76.1297 118.026 76.9357 116.047 77.5091C113.864 78.1419 111.625 78.5591 109.361 78.7549C107.028 78.9675 104.681 78.9675 102.348 78.7549C100.084 78.5591 97.845 78.1419 95.6619 77.5091C93.6878 76.9345 91.7597 76.1286 89.9724 75.1078C88.4272 74.2382 87.0315 73.1234 85.839 71.8063C84.8292 70.6972 84.088 69.3586 83.6734 67.9131C83.3068 66.577 83.3068 65.1753 83.6734 63.8392C84.0881 62.3929 84.8292 61.0595 85.839 59.9491C87.0294 58.6302 88.4242 57.5142 89.9693 56.6446C91.7621 55.6241 93.6843 54.818 95.665 54.2495Z" fill="url(#paint16_linear)"/>
<path d="M117.027 55.511C117.027 60.5799 110.892 65.4439 108.502 67.1469C108.462 67.1754 108.42 67.1985 108.376 67.2164C108.345 67.2287 108.314 67.2385 108.283 67.246C107.771 67.3654 107.068 66.8662 106.626 66.0201C104.236 61.4447 98.1008 49.2099 98.1006 44.141C98.1005 40.4543 99.5533 38.0492 101.807 37.3195C101.823 37.3143 101.839 37.3091 101.855 37.3041C103.442 36.8097 105.419 37.1388 107.563 38.4268C112.789 41.5665 117.026 49.2154 117.027 55.511Z" fill="url(#paint17_linear)"/>
<path d="M106.626 66.0201C104.236 61.4447 98.1008 49.2099 98.1006 44.141C98.1005 40.4543 99.5533 38.0492 101.807 37.3195L98.7696 38.2844L98.4674 39.6734L96.1445 45.9877L105.162 68.2365L108.283 67.246C107.771 67.3654 107.068 66.8662 106.626 66.0201Z" fill="url(#paint18_linear)"/>
<path d="M114.588 56.4835C114.588 61.5526 108.225 66.4171 105.745 68.1203C105.216 68.4834 104.328 67.969 103.799 66.9936C101.319 62.4182 94.9553 50.1834 94.9551 45.1143C94.9548 38.8185 99.3496 36.2598 104.771 39.3993C110.192 42.5389 114.588 50.1877 114.588 56.4835Z" fill="url(#paint19_linear)"/>
<path d="M110.303 53.8099C110.303 55.785 109.493 57.0712 108.239 57.454C107.675 57.6264 107.02 57.6156 106.309 57.4022C105.919 57.2852 105.513 57.1073 105.094 56.8652C102.217 55.2008 99.8851 51.1344 99.885 47.7826C99.885 46.899 100.047 46.1532 100.338 45.5646C100.654 44.9263 101.122 44.4727 101.701 44.2283C101.724 44.2182 101.749 44.2084 101.773 44.199C102.674 43.8505 103.832 43.9971 105.094 44.7273C107.97 46.3916 110.303 50.4581 110.303 53.8099Z" fill="url(#paint20_linear)"/>
<path d="M106.309 57.4022L106.661 58.1004L108.239 57.454C107.675 57.6264 107.02 57.6156 106.309 57.4022Z" fill="url(#paint21_linear)"/>
<path d="M100.338 45.5646C100.654 44.9263 101.122 44.4727 101.701 44.2283L100.009 44.9124L100.338 45.5646Z" fill="url(#paint22_linear)"/>
<ellipse rx="6.00941" ry="6.06921" transform="matrix(0.866786 0.501507 3.75602e-05 1 103.484 51.4443)" fill="url(#paint23_linear)"/>
<path fill-rule="evenodd" clip-rule="evenodd" d="M106.074 50.9635C106.296 51.351 106.296 51.7708 106.074 51.9012L103.01 53.6991C102.992 53.7102 102.972 53.7188 102.951 53.7251C102.943 53.7276 102.935 53.7297 102.926 53.7315C102.705 53.7776 102.402 53.5751 102.206 53.2336L100.837 50.8452C100.615 50.4577 100.615 50.0379 100.837 49.9075C101.059 49.7771 101.419 49.9856 101.641 50.3731L102.608 52.0598L103.939 51.2788L105.27 50.4979C105.287 50.4875 105.306 50.4793 105.325 50.4732C105.335 50.4698 105.346 50.467 105.357 50.4648C105.578 50.4215 105.879 50.6237 106.074 50.9635Z" fill="url(#paint24_linear)"/>
<path d="M102.206 53.2336L100.837 50.8452C100.615 50.4577 100.615 50.0379 100.837 49.9075L99.588 50.2208L101.595 54.0716L102.926 53.7315C102.705 53.7776 102.402 53.5751 102.206 53.2336Z" fill="url(#paint25_linear)"/>
<path d="M105.27 50.4979C105.287 50.4875 105.306 50.4793 105.325 50.4732L104.034 50.8045L103.939 51.2788L105.27 50.4979Z" fill="url(#paint26_linear)"/>
<path fill-rule="evenodd" clip-rule="evenodd" d="M104.789 51.2903C105.011 51.6778 105.011 52.0976 104.789 52.228L101.725 54.026C101.503 54.1563 101.143 53.9479 100.921 53.5604L99.5515 51.172C99.3293 50.7845 99.3293 50.3647 99.5514 50.2343C99.7735 50.1039 100.134 50.3124 100.356 50.6999L101.323 52.3866L103.984 50.8246C104.206 50.6943 104.567 50.9027 104.789 51.2903Z" fill="url(#paint27_linear)"/>
<path d="M79.0372 58.8866C78.4955 56.9986 77.5274 55.2624 76.2085 53.8136C74.6525 52.0933 72.8308 50.6372 70.8138 49.5014C68.4707 48.1651 65.979 47.1123 63.3904 46.3649C60.5421 45.5368 57.6199 44.9918 54.6659 44.7376C51.6132 44.4569 48.5415 44.4569 45.4888 44.7376C42.5335 44.9922 39.6101 45.5372 36.7602 46.3649C34.1705 47.1125 31.6774 48.1653 29.3329 49.5014C27.3153 50.6364 25.4935 52.0926 23.9381 53.8136C22.6193 55.2624 21.6511 56.9986 21.1094 58.8866C20.6305 60.633 20.6305 62.4775 21.1094 64.2239C21.6502 66.1111 22.6185 67.8462 23.9381 69.2928C25.4932 71.0153 27.315 72.4729 29.3329 73.6091C31.6731 74.9443 34.1622 75.9958 36.7481 76.7416C39.5996 77.568 42.5243 78.113 45.4807 78.3688C48.5336 78.6455 51.605 78.6455 54.6578 78.3688C57.6143 78.113 60.5389 77.568 63.3904 76.7416C65.9771 75.9962 68.4664 74.9432 70.8057 73.605C72.8264 72.4712 74.6511 71.0149 76.2085 69.2928C77.5282 67.8462 78.4964 66.1111 79.0372 64.2239C79.5162 62.4775 79.5162 60.633 79.0372 58.8866Z" fill="url(#paint28_linear)"/>
<path d="M20.7461 54.8909H79.3932V62.3067L20.7461 61.8958V54.8909Z" fill="url(#paint29_linear)"/>
<path d="M36.7701 39.7085C39.6194 38.8753 42.5428 38.3249 45.4987 38.065C48.546 37.7853 51.6123 37.7853 54.6596 38.065C57.6142 38.3245 60.5363 38.8628 63.3841 39.6963C65.9733 40.4421 68.4652 41.495 70.8075 42.8329C72.8283 43.9715 74.6529 45.4318 76.2103 47.1573C77.5292 48.6075 78.4973 50.3451 79.039 52.2343C79.5178 53.9794 79.5178 55.8225 79.039 57.5676C78.4974 59.4556 77.5293 61.1919 76.2103 62.6406C74.6519 64.36 72.829 65.8159 70.8115 66.9528C68.4706 68.2876 65.9777 69.3403 63.3922 70.0893C60.5407 70.9158 57.616 71.4608 54.6596 71.7165C51.6122 71.9942 48.5461 71.9942 45.4987 71.7165C42.5422 71.4608 39.6175 70.9158 36.766 70.0893C34.1876 69.3389 31.6692 68.2861 29.3346 66.9528C27.3164 65.817 25.4934 64.3609 23.9359 62.6406C22.6169 61.1919 21.6487 59.4434 21.1072 57.5554C20.6283 55.8103 20.6283 53.9794 21.1072 52.2343C21.6488 50.3451 22.6169 48.6035 23.9359 47.1532C25.4906 45.4304 27.3125 43.9728 29.3306 42.8369C31.6724 41.504 34.183 40.4512 36.7701 39.7085Z" fill="url(#paint30_linear)"/>
<path d="M64.6678 41.3566C64.6681 47.9774 56.6557 54.3305 53.5334 56.5549C53.481 56.5922 53.4259 56.6224 53.3684 56.6457C53.329 56.6618 53.2884 56.6746 53.2469 56.6843C52.5792 56.8404 51.661 56.1883 51.0836 55.0832C47.9609 49.107 39.9478 33.1265 39.9475 26.5057C39.9474 21.6903 41.8449 18.5489 44.7885 17.5957C44.8095 17.5889 44.8306 17.5822 44.8517 17.5757C46.9241 16.9299 49.5069 17.3598 52.3071 19.042C59.1335 23.143 64.6675 33.1335 64.6678 41.3566Z" fill="url(#paint31_linear)"/>
<path d="M51.0836 55.0832C47.9609 49.107 39.9478 33.1265 39.9475 26.5057C39.9474 21.6903 41.8449 18.5489 44.7885 17.5957L40.8214 18.856L40.4267 20.6703L37.3926 28.9178L49.1709 57.9781L53.2469 56.6843C52.5792 56.8404 51.661 56.1883 51.0836 55.0832Z" fill="url(#paint32_linear)"/>
<path d="M61.4834 42.6265C61.4836 49.2475 53.1721 55.6013 49.9331 57.826C49.2426 58.3002 48.0823 57.6283 47.3918 56.3543C44.1525 50.3782 35.8401 34.3977 35.8398 27.7767C35.8395 19.5534 41.5798 16.2113 48.661 20.312C55.7423 24.4127 61.4831 34.4032 61.4834 42.6265Z" fill="url(#paint33_linear)"/>
<path d="M55.8829 39.1346C55.883 41.7144 54.8254 43.3944 53.1877 43.8944C52.4505 44.1195 51.5956 44.1055 50.6669 43.8267C50.1576 43.6739 49.6261 43.4415 49.0796 43.1253C45.3221 40.9513 42.2759 35.64 42.2757 31.262C42.2756 30.1078 42.4873 29.1338 42.8679 28.3649C43.2805 27.5312 43.8918 26.9388 44.6471 26.6195C44.6784 26.6063 44.7099 26.5936 44.7416 26.5813C45.9191 26.1261 47.4306 26.3175 49.079 27.2713C52.8365 29.4452 55.8827 34.7566 55.8829 39.1346Z" fill="url(#paint34_linear)"/>
<path d="M50.6669 43.8267L51.1269 44.7387L53.1877 43.8944C52.4505 44.1195 51.5956 44.1055 50.6669 43.8267Z" fill="url(#paint35_linear)"/>
<path d="M42.8679 28.3649C43.2805 27.5312 43.8918 26.9388 44.6471 26.6195L42.4382 27.5131L42.8679 28.3649Z" fill="url(#paint36_linear)"/>
<ellipse rx="7.84922" ry="7.92735" transform="matrix(0.866788 0.501509 3.75598e-05 1 46.9777 36.045)" fill="url(#paint37_linear)"/>
<path fill-rule="evenodd" clip-rule="evenodd" d="M50.3605 35.417C50.6507 35.9231 50.6507 36.4715 50.3605 36.6418L46.3589 38.9902C46.3343 39.0046 46.3085 39.0159 46.2816 39.0241C46.2708 39.0273 46.2599 39.0301 46.2488 39.0324C45.9599 39.0927 45.564 38.8283 45.3082 38.3821L43.5199 35.2625C43.2297 34.7564 43.2297 34.208 43.5198 34.0377C43.8099 33.8675 44.2803 34.1397 44.5705 34.6459L45.8335 36.849L47.5716 35.8289L49.3098 34.8088C49.3328 34.7953 49.3569 34.7846 49.382 34.7766C49.3959 34.7721 49.4101 34.7685 49.4245 34.7657C49.713 34.7091 50.1061 34.9732 50.3605 35.417Z" fill="url(#paint38_linear)"/>
<path d="M45.3082 38.3821L43.5199 35.2625C43.2297 34.7564 43.2297 34.208 43.5198 34.0377L41.8888 34.447L44.5107 39.4767L46.2488 39.0324C45.9599 39.0927 45.564 38.8283 45.3082 38.3821Z" fill="url(#paint39_linear)"/>
<path d="M49.3098 34.8088C49.3328 34.7953 49.3569 34.7846 49.382 34.7766L47.6962 35.2094L47.5716 35.8289L49.3098 34.8088Z" fill="url(#paint40_linear)"/>
<path fill-rule="evenodd" clip-rule="evenodd" d="M48.6795 35.8435C48.9697 36.3497 48.9697 36.8981 48.6796 37.0683L44.6779 39.4168C44.3878 39.5871 43.9174 39.3148 43.6272 38.8087L41.8389 35.6891C41.5487 35.1829 41.5487 34.6346 41.8388 34.4643C42.1289 34.294 42.5993 34.5663 42.8895 35.0724L44.1525 37.2756L47.6288 35.2354C47.9189 35.0651 48.3894 35.3374 48.6795 35.8435Z" fill="url(#paint41_linear)"/>
</g>
<defs>
<linearGradient id="paint0_linear" x1="91.9813" y1="37.2507" x2="91.9813" y2="57.4235" gradientUnits="userSpaceOnUse">
<stop stop-color="#FFB800"/>
<stop offset="1" stop-color="#FF7A00"/>
</linearGradient>
<linearGradient id="paint1_linear" x1="91.9813" y1="37.2507" x2="91.9813" y2="57.4235" gradientUnits="userSpaceOnUse">
<stop stop-color="#FFB800"/>
<stop offset="1" stop-color="#FF7A00"/>
</linearGradient>
<linearGradient id="paint2_linear" x1="91.9813" y1="31.1694" x2="91.9813" y2="51.3542" gradientUnits="userSpaceOnUse">
<stop stop-color="#FFC700"/>
<stop offset="1" stop-color="#FFB800"/>
</linearGradient>
<linearGradient id="paint3_linear" x1="93.3055" y1="18.9799" x2="93.3424" y2="42.3392" gradientUnits="userSpaceOnUse">
<stop stop-color="#FFB800"/>
<stop offset="1" stop-color="#FFA800"/>
</linearGradient>
<linearGradient id="paint4_linear" x1="93.3055" y1="18.9799" x2="93.3424" y2="42.3392" gradientUnits="userSpaceOnUse">
<stop stop-color="#FFB800"/>
<stop offset="1" stop-color="#FFA800"/>
</linearGradient>
<linearGradient id="paint5_linear" x1="97.9086" y1="33.1225" x2="88.8672" y2="41.6316" gradientUnits="userSpaceOnUse">
<stop stop-color="#FFD600"/>
<stop offset="1" stop-color="#FFA800"/>
</linearGradient>
<linearGradient id="paint6_linear" x1="91.3941" y1="24.8992" x2="87.3227" y2="31.9363" gradientUnits="userSpaceOnUse">
<stop stop-color="#FFB800"/>
<stop offset="1" stop-color="#FFB800"/>
</linearGradient>
<linearGradient id="paint7_linear" x1="91.3941" y1="24.8992" x2="87.3227" y2="31.9363" gradientUnits="userSpaceOnUse">
<stop stop-color="#FFB800"/>
<stop offset="1" stop-color="#FFB800"/>
</linearGradient>
<linearGradient id="paint8_linear" x1="91.3941" y1="24.8992" x2="87.3227" y2="31.9363" gradientUnits="userSpaceOnUse">
<stop stop-color="#FFB800"/>
<stop offset="1" stop-color="#FFB800"/>
</linearGradient>
<linearGradient id="paint9_linear" x1="4.65035" y1="0" x2="4.65035" y2="9.39321" gradientUnits="userSpaceOnUse">
<stop stop-color="#FFC700"/>
<stop offset="1" stop-color="#FFB800"/>
</linearGradient>
<linearGradient id="paint10_linear" x1="90.1257" y1="28.4018" x2="88.4825" y2="31.2405" gradientUnits="userSpaceOnUse">
<stop stop-color="#FFB800"/>
<stop offset="1" stop-color="#FFA800"/>
</linearGradient>
<linearGradient id="paint11_linear" x1="90.1257" y1="28.4018" x2="88.4825" y2="31.2405" gradientUnits="userSpaceOnUse">
<stop stop-color="#FFB800"/>
<stop offset="1" stop-color="#FFA800"/>
</linearGradient>
<linearGradient id="paint12_linear" x1="90.1257" y1="28.4018" x2="88.4825" y2="31.2405" gradientUnits="userSpaceOnUse">
<stop stop-color="#FFB800"/>
<stop offset="1" stop-color="#FFA800"/>
</linearGradient>
<linearGradient id="paint13_linear" x1="81.5561" y1="32.4539" x2="87.2474" y2="35.7225" gradientUnits="userSpaceOnUse">
<stop stop-color="#FFD600"/>
<stop offset="1" stop-color="#FFA800"/>
</linearGradient>
<linearGradient id="paint14_linear" x1="105.848" y1="57.9385" x2="105.848" y2="84.0067" gradientUnits="userSpaceOnUse">
<stop stop-color="#FFB800"/>
<stop offset="1" stop-color="#FF7A00"/>
</linearGradient>
<linearGradient id="paint15_linear" x1="105.848" y1="57.9385" x2="105.848" y2="84.0067" gradientUnits="userSpaceOnUse">
<stop stop-color="#FFB800"/>
<stop offset="1" stop-color="#FF7A00"/>
</linearGradient>
<linearGradient id="paint16_linear" x1="105.85" y1="52.8306" x2="105.85" y2="78.9144" gradientUnits="userSpaceOnUse">
<stop stop-color="#FFC700"/>
<stop offset="1" stop-color="#FFB800"/>
</linearGradient>
<linearGradient id="paint17_linear" x1="107.564" y1="37.0783" x2="107.612" y2="67.2643" gradientUnits="userSpaceOnUse">
<stop stop-color="#FFB800"/>
<stop offset="1" stop-color="#FFA800"/>
</linearGradient>
<linearGradient id="paint18_linear" x1="107.564" y1="37.0783" x2="107.612" y2="67.2643" gradientUnits="userSpaceOnUse">
<stop stop-color="#FFB800"/>
<stop offset="1" stop-color="#FFA800"/>
</linearGradient>
<linearGradient id="paint19_linear" x1="113.511" y1="55.3545" x2="101.828" y2="66.3503" gradientUnits="userSpaceOnUse">
<stop stop-color="#FFD600"/>
<stop offset="1" stop-color="#FFA800"/>
</linearGradient>
<linearGradient id="paint20_linear" x1="105.094" y1="44.7273" x2="99.8324" y2="53.821" gradientUnits="userSpaceOnUse">
<stop stop-color="#FFB800"/>
<stop offset="1" stop-color="#FFB800"/>
</linearGradient>
<linearGradient id="paint21_linear" x1="105.094" y1="44.7273" x2="99.8324" y2="53.821" gradientUnits="userSpaceOnUse">
<stop stop-color="#FFB800"/>
<stop offset="1" stop-color="#FFB800"/>
</linearGradient>
<linearGradient id="paint22_linear" x1="105.094" y1="44.7273" x2="99.8324" y2="53.821" gradientUnits="userSpaceOnUse">
<stop stop-color="#FFB800"/>
<stop offset="1" stop-color="#FFB800"/>
</linearGradient>
<linearGradient id="paint23_linear" x1="6.00941" y1="0" x2="6.00941" y2="12.1384" gradientUnits="userSpaceOnUse">
<stop stop-color="#FFC700"/>
<stop offset="1" stop-color="#FFB800"/>
</linearGradient>
<linearGradient id="paint24_linear" x1="103.455" y1="49.2535" x2="101.332" y2="52.9218" gradientUnits="userSpaceOnUse">
<stop stop-color="#FFB800"/>
<stop offset="1" stop-color="#FFA800"/>
</linearGradient>
<linearGradient id="paint25_linear" x1="103.455" y1="49.2535" x2="101.332" y2="52.9218" gradientUnits="userSpaceOnUse">
<stop stop-color="#FFB800"/>
<stop offset="1" stop-color="#FFA800"/>
</linearGradient>
<linearGradient id="paint26_linear" x1="103.455" y1="49.2535" x2="101.332" y2="52.9218" gradientUnits="userSpaceOnUse">
<stop stop-color="#FFB800"/>
<stop offset="1" stop-color="#FFA800"/>
</linearGradient>
<linearGradient id="paint27_linear" x1="92.3827" y1="54.4903" x2="99.7373" y2="58.7141" gradientUnits="userSpaceOnUse">
<stop stop-color="#FFD600"/>
<stop offset="1" stop-color="#FFA800"/>
</linearGradient>
<linearGradient id="paint28_linear" x1="50.0713" y1="44.5271" x2="50.0713" y2="78.5763" gradientUnits="userSpaceOnUse">
<stop stop-color="#FFB800"/>
<stop offset="1" stop-color="#FF7A00"/>
</linearGradient>
<linearGradient id="paint29_linear" x1="50.0713" y1="44.5271" x2="50.0713" y2="78.5763" gradientUnits="userSpaceOnUse">
<stop stop-color="#FFB800"/>
<stop offset="1" stop-color="#FF7A00"/>
</linearGradient>
<linearGradient id="paint30_linear" x1="50.0731" y1="37.8552" x2="50.0731" y2="71.9248" gradientUnits="userSpaceOnUse">
<stop stop-color="#FFC700"/>
<stop offset="1" stop-color="#FFB800"/>
</linearGradient>
<linearGradient id="paint31_linear" x1="52.3079" y1="17.2807" x2="52.3706" y2="56.7083" gradientUnits="userSpaceOnUse">
<stop stop-color="#FFB800"/>
<stop offset="1" stop-color="#FFA800"/>
</linearGradient>
<linearGradient id="paint32_linear" x1="52.3079" y1="17.2807" x2="52.3706" y2="56.7083" gradientUnits="userSpaceOnUse">
<stop stop-color="#FFB800"/>
<stop offset="1" stop-color="#FFA800"/>
</linearGradient>
<linearGradient id="paint33_linear" x1="60.0774" y1="41.1519" x2="44.8167" y2="55.5142" gradientUnits="userSpaceOnUse">
<stop stop-color="#FFD600"/>
<stop offset="1" stop-color="#FFA800"/>
</linearGradient>
<linearGradient id="paint34_linear" x1="49.079" y1="27.2713" x2="42.207" y2="39.1491" gradientUnits="userSpaceOnUse">
<stop stop-color="#FFB800"/>
<stop offset="1" stop-color="#FFB800"/>
</linearGradient>
<linearGradient id="paint35_linear" x1="49.079" y1="27.2713" x2="42.207" y2="39.1491" gradientUnits="userSpaceOnUse">
<stop stop-color="#FFB800"/>
<stop offset="1" stop-color="#FFB800"/>
</linearGradient>
<linearGradient id="paint36_linear" x1="49.079" y1="27.2713" x2="42.207" y2="39.1491" gradientUnits="userSpaceOnUse">
<stop stop-color="#FFB800"/>
<stop offset="1" stop-color="#FFB800"/>
</linearGradient>
<linearGradient id="paint37_linear" x1="7.84922" y1="0" x2="7.84922" y2="15.8547" gradientUnits="userSpaceOnUse">
<stop stop-color="#FFC700"/>
<stop offset="1" stop-color="#FFB800"/>
</linearGradient>
<linearGradient id="paint38_linear" x1="46.9402" y1="33.1835" x2="44.1668" y2="37.9749" gradientUnits="userSpaceOnUse">
<stop stop-color="#FFB800"/>
<stop offset="1" stop-color="#FFA800"/>
</linearGradient>
<linearGradient id="paint39_linear" x1="46.9402" y1="33.1835" x2="44.1668" y2="37.9749" gradientUnits="userSpaceOnUse">
<stop stop-color="#FFB800"/>
<stop offset="1" stop-color="#FFA800"/>
</linearGradient>
<linearGradient id="paint40_linear" x1="46.9402" y1="33.1835" x2="44.1668" y2="37.9749" gradientUnits="userSpaceOnUse">
<stop stop-color="#FFB800"/>
<stop offset="1" stop-color="#FFA800"/>
</linearGradient>
<linearGradient id="paint41_linear" x1="32.4753" y1="40.0233" x2="42.0816" y2="45.5402" gradientUnits="userSpaceOnUse">
<stop stop-color="#FFD600"/>
<stop offset="1" stop-color="#FFA800"/>
</linearGradient>
<clipPath id="clip0">
<rect width="149" height="108" fill="white"/>
</clipPath>
</defs>
</svg>
