<svg width="106" height="47" viewBox="0 0 106 47" fill="none" xmlns="http://www.w3.org/2000/svg">
<g clip-path="url(#clip0)">
<path d="M20.0014 32.0851C20.0014 31.3932 20.0014 30.7269 20.0014 30.0349C20.0014 27.1647 22.0759 25.5758 24.1759 24.1663C24.1759 22.1931 24.1759 21.7318 24.1759 19.7329C24.1759 19.3485 23.2283 19.0153 21.7429 18.7847V18.9641C22.921 19.1691 23.6637 19.4766 23.6637 19.7841C23.6637 19.8097 23.6637 19.861 23.6381 19.8866C23.6381 19.8866 23.6381 19.8866 23.6381 19.9123C23.6381 19.9379 23.6125 19.9379 23.6125 19.9635C23.6125 19.9635 23.6125 19.9635 23.6125 19.9891L23.5869 20.0148C23.5869 20.0148 23.5612 20.0404 23.5356 20.0404C23.5356 20.0404 23.51 20.0404 23.51 20.066C23.4844 20.066 23.4844 20.0916 23.4588 20.0916C23.4588 20.0916 23.4332 20.0916 23.4332 20.1173C23.4076 20.1173 23.382 20.1429 23.382 20.1429C23.382 20.1429 23.3564 20.1429 23.3564 20.1685C23.3308 20.1685 23.3051 20.1942 23.2795 20.1942C23.2795 20.1942 23.2539 20.1942 23.2539 20.2198C23.2283 20.2198 23.2027 20.2454 23.1771 20.2454C23.1771 20.2454 23.1515 20.2454 23.1515 20.271C23.1259 20.271 23.1003 20.2967 23.049 20.2967H23.0234C22.9978 20.3223 22.9466 20.3223 22.8954 20.3479C22.8442 20.3735 22.7929 20.3735 22.7417 20.3992C22.6905 20.4248 22.6393 20.4248 22.5881 20.4504H22.5625C22.5112 20.4504 22.4856 20.4761 22.4344 20.4761C22.4344 20.4761 22.4344 20.4761 22.4088 20.4761H22.3832C22.332 20.4761 22.2807 20.5017 22.2295 20.5017C22.2295 20.5017 22.2295 20.5017 22.2039 20.5017H22.1783C22.1271 20.5017 22.0759 20.5273 22.0246 20.5273C21.9478 20.5529 21.8966 20.5529 21.8198 20.5529H21.7685C21.7429 20.5529 21.6917 20.5529 21.6661 20.5786C21.5637 20.6042 21.4868 20.6042 21.3844 20.6298H21.3588H21.3332H21.3076C21.2307 20.6298 21.1795 20.6554 21.1027 20.6554H21.0771C21.0515 20.6554 21.0002 20.6554 20.9746 20.6811C20.7954 20.7067 20.6161 20.7323 20.4112 20.7579C20.3856 20.7579 20.36 20.7579 20.3088 20.7579H20.2575C20.2063 20.7579 20.1551 20.7579 20.1039 20.7836C20.0527 20.7836 20.0271 20.7836 19.9758 20.7836C19.899 20.7836 19.8222 20.8092 19.7453 20.8092H19.7197H19.6941C19.6173 20.8092 19.5405 20.8092 19.438 20.8348H19.4124H19.3868C19.31 20.8348 19.2075 20.8348 19.1307 20.8605H19.1051H19.0795C19.0027 20.8605 18.9002 20.8605 18.8234 20.8861H18.7722H18.7466C18.6697 20.8861 18.5673 20.8861 18.4648 20.8861H18.4392C18.3368 20.8861 18.2344 20.8861 18.1575 20.8861H18.1319C18.0295 20.8861 17.927 20.8861 17.8246 20.8861H17.799C17.6965 20.8861 17.5941 20.8861 17.4917 20.8861H17.4661C17.3636 20.8861 17.2868 20.8861 17.1843 20.8861C17.1075 20.8861 17.0307 20.8861 16.9539 20.8861H16.877H16.8002H16.7234H16.6465H16.5697H16.4929H16.416H16.3392H16.2624H16.1856H16.1087H16.0319H15.9551H15.8782H15.8014H15.7246H15.6477H15.5709H15.4941H15.4173H15.3404H15.2636H15.1868H15.1099H15.0331H14.9563H14.8794H14.8026H14.7258H14.6489H14.5721H14.4953H14.4185H14.3416H14.2648H14.188H14.1111H14.0343H13.9063H13.8294H13.7526H13.6758L13.5477 20.8605C13.4709 20.8605 13.4197 20.8348 13.3428 20.8348H13.266H13.1892H13.1123C12.9075 20.8092 12.7282 20.7836 12.5489 20.7579L12.4209 20.7323L12.2928 20.6554C12.344 20.6554 12.3953 20.6554 12.4465 20.6811C12.4977 20.6811 12.5489 20.6811 12.6258 20.7067H12.6514C12.7794 20.7323 12.9075 20.7323 13.0355 20.7579C13.0355 20.7579 13.0355 20.7579 13.0611 20.7579H13.1123L13.2916 20.7836H13.3428H13.3941H13.4453L13.6245 20.8092H13.6758H13.727H13.7782H13.855H13.9063H13.9575H14.0087H14.0599H14.1111H14.1624H14.2136H14.2648H14.316H14.3672H14.4185H14.5465H14.5977H14.6489H14.7258H14.8026H14.8794H14.9563H15.0331H15.1099H15.1611H15.1868H15.2636H15.3404H15.4173H15.4941H15.5709H15.6477H15.699H15.7758H15.8526H15.9295H16.0063H16.0831H16.1599H16.2368H16.3904H16.4673H16.5697H16.5953H16.7234H16.7746H16.9026C16.9026 20.8092 16.9026 20.8092 16.9282 20.8092H16.9539H17.0563H17.1331H17.2356H17.2612H17.2868H17.4148H17.4661H17.5685H17.5941H17.7222H17.7478C17.7734 20.8092 17.799 20.8092 17.8246 20.8092C17.8758 20.8092 17.927 20.8092 17.9783 20.8092C18.0039 20.8092 18.0295 20.8092 18.0551 20.8092H18.1063H18.2087H18.2344C18.26 20.8092 18.26 20.8092 18.2856 20.8092H18.3112H18.388H18.4648H18.5417H18.5673H18.5929H18.6185H18.6953H18.7466H18.8746H18.9002H19.0283H19.0539H19.1819C19.2588 20.8092 19.3612 20.7836 19.438 20.7836H19.4636H19.4892H19.5661H19.6685H19.771C19.771 20.7836 19.771 20.7836 19.7966 20.7836H19.9246H19.9502H20.0271H20.0527C20.0527 20.7836 20.0527 20.7836 20.0783 20.7836H20.1039L20.2319 20.7579H20.2832H20.3088H20.3344H20.3856H20.4368H20.4624H20.488C20.5137 20.7579 20.5393 20.7579 20.5649 20.7579C20.5905 20.7579 20.5905 20.7579 20.6161 20.7579H20.6417H20.7185H20.7698H20.7954C20.7954 20.7579 20.7954 20.7579 20.821 20.7579H20.8466L20.9746 20.7323H21.0259H21.0515H21.0771H21.1283H21.1795H21.2051H21.2307C21.2563 20.7323 21.282 20.7323 21.282 20.7323H21.3076H21.3332H21.3844H21.41H21.4356H21.4612H21.4868C21.5637 20.7067 21.6149 20.7067 21.6917 20.6811C21.7173 20.6811 21.7173 20.6811 21.7429 20.6554C21.7942 20.6298 21.871 20.6298 21.9222 20.6042H21.9478H21.9734C22.0503 20.5786 22.1271 20.5529 22.1783 20.5273H22.2039C22.2551 20.5017 22.332 20.4761 22.3832 20.4761H22.4088H22.4344H22.46C22.7929 20.3479 22.9722 20.1942 22.9722 20.0148C22.9722 19.7585 22.5368 19.5279 21.7685 19.3485V19.9891H19.9758L21.6405 19.8097L21.7173 19.3228C21.4612 19.2716 21.1795 19.1947 20.8466 19.1434C21.1539 19.1947 21.4612 19.2203 21.7173 19.2716L21.7429 19.1178C20.5137 18.9384 18.9002 18.8103 17.1587 18.8103H17.1331V20.3992H15.3404L17.0051 20.2198L17.1331 18.8103C13.2404 18.8103 10.116 19.3741 10.116 20.0404C10.116 21.783 10.116 22.9362 10.116 24.4739C12.216 25.8834 14.2904 27.4722 14.2904 30.3425C14.2904 31.0344 14.2904 31.7007 14.2904 32.3926C6.14641 32.6745 0 35.7498 0 39.4657C0 43.6173 7.65741 46.9744 17.1075 46.9744C26.5576 46.9744 34.215 43.6173 34.215 39.4657C34.215 35.7754 28.0686 32.6745 20.0014 32.0851ZM12.0111 19.1947C11.627 19.3485 11.3965 19.5022 11.3965 19.6816C11.3965 19.8866 11.7038 20.066 12.216 20.2198C12.2416 20.2198 12.2672 20.2198 12.2672 20.2454C12.344 20.271 12.3953 20.271 12.4721 20.2967C12.4977 20.2967 12.5489 20.3223 12.5745 20.3223C12.6514 20.3479 12.7282 20.3479 12.805 20.3735C12.8306 20.3735 12.8819 20.3992 12.9075 20.3992C13.0355 20.4248 13.138 20.4504 13.266 20.4761C13.266 20.4761 13.266 20.4761 13.2916 20.4761C13.4197 20.5017 13.5733 20.5273 13.7014 20.5529C13.7526 20.5529 13.7782 20.5529 13.8294 20.5786C13.9319 20.6042 14.0343 20.6042 14.1624 20.6298C14.2136 20.6298 14.2648 20.6298 14.316 20.6554C14.4185 20.6554 14.5209 20.6811 14.6233 20.6811C14.6746 20.6811 14.7258 20.6811 14.8026 20.7067C14.905 20.7067 15.0331 20.7323 15.1611 20.7323C15.2124 20.7323 15.2636 20.7323 15.3148 20.7323C15.4941 20.7323 15.6734 20.7579 15.8526 20.7579H15.7502C15.5709 20.7579 15.3916 20.7579 15.238 20.7579C15.1868 20.7579 15.1099 20.7579 15.0587 20.7579C14.9563 20.7579 14.8282 20.7579 14.7258 20.7579C14.6489 20.7579 14.5977 20.7579 14.5209 20.7579C14.4185 20.7579 14.316 20.758 14.2392 20.7323C14.1624 20.7323 14.1111 20.7323 14.0343 20.7323C13.9575 20.7323 13.855 20.7323 13.7782 20.7067C13.7014 20.7067 13.6502 20.7067 13.5733 20.6811C13.4965 20.6811 13.4197 20.6554 13.3428 20.6554C13.266 20.6554 13.2148 20.6298 13.138 20.6298C13.0611 20.6298 12.9843 20.6042 12.9075 20.6042C12.8306 20.6042 12.7794 20.5786 12.7282 20.5786C12.6514 20.5786 12.6001 20.5529 12.5233 20.5529C12.4721 20.5529 12.3953 20.5273 12.344 20.5273C12.2928 20.5273 12.216 20.5017 12.1648 20.5017C12.1136 20.5017 12.0623 20.4761 12.0111 20.4761C11.9599 20.4761 11.9087 20.4504 11.8318 20.4504C11.7806 20.4504 11.7294 20.4248 11.6782 20.4248C11.627 20.4248 11.5757 20.3992 11.5245 20.3992C11.4733 20.3992 11.4477 20.3735 11.3965 20.3735C11.3453 20.3735 11.3196 20.3479 11.2684 20.3479C11.2172 20.3479 11.1916 20.3223 11.166 20.3223C11.1404 20.2967 11.0892 20.2967 11.0635 20.271C11.0379 20.2454 10.9867 20.2454 10.9611 20.2198C10.9355 20.1942 10.9099 20.1942 10.8843 20.1685C10.8587 20.1429 10.8331 20.1429 10.8074 20.1173C10.7818 20.0916 10.7562 20.0916 10.7562 20.066C10.7306 20.0404 10.7306 20.0404 10.705 20.0148C10.6794 19.9891 10.6794 19.9891 10.6538 19.9635C10.6538 19.9379 10.6282 19.9379 10.6282 19.9123C10.6282 19.8866 10.6026 19.861 10.6026 19.8354C10.6026 19.5791 11.1404 19.3485 12.0111 19.1947ZM14.4185 39.3119C14.4441 39.3119 14.4697 39.3376 14.4953 39.3376C14.6233 39.3632 14.7514 39.4144 14.8794 39.4401C14.905 39.4401 14.9307 39.4401 14.9563 39.4657C15.1099 39.4913 15.2636 39.5426 15.4173 39.5682C15.4429 39.5682 15.4941 39.5682 15.5197 39.5938C15.6734 39.6195 15.8014 39.6451 15.9551 39.6451C15.9807 39.6451 15.9807 39.6451 16.0063 39.6451C16.1599 39.6707 16.3392 39.6707 16.4929 39.6963C16.5441 39.6963 16.5697 39.6963 16.6209 39.6963C16.8002 39.6963 16.9795 39.722 17.1331 39.722C17.3124 39.722 17.4661 39.722 17.6453 39.6963C17.6965 39.6963 17.7222 39.6963 17.7734 39.6963C17.927 39.6963 18.1063 39.6707 18.26 39.6451C18.4136 39.6195 18.5673 39.5938 18.7209 39.5682C18.7466 39.5682 18.7978 39.5682 18.8234 39.5426C19.1307 39.4913 19.4124 39.4144 19.6941 39.3376C19.7197 39.3376 19.771 39.3119 19.7966 39.3119C19.9246 39.2607 20.0527 39.235 20.1807 39.1838C20.3088 39.1325 20.4112 39.0813 20.5393 39.03C20.5649 39.0044 20.5905 39.0044 20.6161 38.9788C20.7185 38.9275 20.821 38.8763 20.9234 38.825C21.2307 38.6456 21.4612 38.4406 21.6405 38.2356C21.4356 39.3119 19.4893 40.1576 17.1075 40.1576C14.7258 40.1576 12.7794 39.3119 12.5745 38.2356C12.7282 38.4406 12.9587 38.62 13.2148 38.7738C13.2148 38.7738 13.2404 38.7738 13.2404 38.7994C13.3428 38.8506 13.4453 38.9275 13.5477 38.9788C13.5733 38.9788 13.5733 39.0044 13.5989 39.0044C13.7014 39.0557 13.8038 39.1069 13.9063 39.1582C13.9319 39.1582 13.9575 39.1838 13.9831 39.1838C14.1624 39.235 14.2904 39.2607 14.4185 39.3119ZM14.2136 32.8027C14.2136 32.9821 14.2136 33.1614 14.2136 33.3665C9.83426 33.6484 5.91592 34.5453 3.0476 35.8779C5.58299 34.2634 9.57816 33.1358 14.2136 32.8027ZM15.7246 44.5655C8.73303 44.5655 1.07562 42.1822 1.07562 39.2351C1.07562 36.493 7.68302 34.2378 14.2136 33.9303C14.2136 34.0071 14.2136 34.084 14.2136 34.1609C8.04156 35.391 5.25006 37.518 5.32689 39.1838C5.42933 41.5927 11.2428 43.3866 18.4392 43.3866C24.1247 43.3866 28.3247 42.951 31.3211 40.8239C28.1454 43.5917 22.7161 44.5655 15.7246 44.5655ZM26.2759 44.1298C28.4528 43.4123 30.1943 42.746 32.2174 41.1315C30.0662 43.0791 29.1186 43.566 26.2759 44.1298ZM28.0942 34.7247C25.7381 34.0328 22.9978 33.5458 20.0271 33.3665C20.0271 33.1871 20.0271 33.0077 20.0271 32.8027C23.1771 33.0333 26.0454 33.6227 28.3503 34.494C29.4259 34.9041 32.3711 36.4417 32.704 38.21C31.9357 36.3392 29.1955 35.0578 28.0942 34.7247Z" fill="#DFDAC7"/>
<path fill-rule="evenodd" clip-rule="evenodd" d="M21.9223 16.3245L21.1796 15.7351H17.3893V19.9123H21.9223V16.3245ZM19.9503 19.6304L21.6149 19.451L21.7686 18.4003V19.6304H19.9503ZM17.7478 16.5552L17.4917 15.9914L17.9271 16.3758V17.6828L17.7478 16.5552ZM20.7954 16.427L18.3369 16.6833L18.1064 18.2466V16.427H20.7954Z" fill="#642E2E"/>
<path fill-rule="evenodd" clip-rule="evenodd" d="M17.2356 16.7344L16.4929 16.145H12.7026V20.3222H17.2356V16.7344ZM16.3649 16.2732L15.4685 16.1963H16.4417L16.9283 16.6063L16.3649 16.2732ZM13.1892 16.8626L12.8051 16.4013L13.2404 16.7857V17.452L13.1892 16.8626ZM15.2893 20.066L16.9539 19.8866L17.1076 18.1183V20.066H15.2893ZM16.6466 16.8369L13.6758 17.1188L13.4453 18.964V16.8369H16.6466Z" fill="#642E2E"/>
<path fill-rule="evenodd" clip-rule="evenodd" d="M11.0123 17.7339C9.68061 16.632 10.0392 14.8124 11.3709 13.9411C14.3673 12.0447 16.0831 12.506 15.5197 8.14941C15.827 8.8926 15.9551 8.99511 16.0063 9.76392C16.3648 14.8124 8.45133 13.1467 11.0123 17.7339Z" fill="#DFDAC7"/>
<path fill-rule="evenodd" clip-rule="evenodd" d="M22.8186 17.452C25.3796 16.6063 25.2515 12.9416 23.0235 11.1477C20.7954 9.37945 18.26 8.81565 19.1307 5.50977C19.1307 8.45688 20.1551 8.61064 22.6905 10.1995C27.1979 12.9929 24.6113 17.8364 22.8186 17.452Z" fill="#DFDAC7"/>
<path fill-rule="evenodd" clip-rule="evenodd" d="M18.3624 0C19.7198 2.43457 15.3148 4.89477 18.9515 9.7639C20.3344 11.6091 21.7942 12.6341 21.5637 15.0174C21.1283 12.4547 20.1551 12.096 18.5161 10.0971C14.7258 5.48419 18.7466 3.33152 18.3624 0Z" fill="#DFDAC7"/>
<path fill-rule="evenodd" clip-rule="evenodd" d="M17.1331 10.7634C18.3112 13.0699 16.2624 15.5044 13.6501 15.2994C16.1599 14.4025 17.1075 13.3261 17.1331 10.7634Z" fill="#DFDAC7"/>
<path fill-rule="evenodd" clip-rule="evenodd" d="M47.3786 16.5296C47.5323 16.6065 47.6859 16.6834 47.7628 16.914L47.7116 17.1959C47.7116 17.1959 47.6859 17.2472 47.6603 17.2728C47.5323 17.4266 47.4042 17.5803 47.4298 17.9135L47.4042 18.0929C47.2762 18.2979 47.1225 18.3235 46.9689 18.3491L46.4823 18.6054C46.3286 18.4517 46.2262 18.2723 46.1493 18.0416C46.0981 17.9135 46.0725 17.7854 46.0725 17.6316C45.6115 17.6316 45.1762 17.6572 44.6896 17.7085C44.4079 17.7341 44.1005 17.7341 43.7676 17.7597C43.7676 17.8366 43.7676 17.9391 43.742 18.016C43.7164 18.2979 43.6908 18.5542 43.7164 18.8873C43.87 18.9386 43.9469 19.0411 43.9213 19.2461C43.9213 20.2455 43.8957 21.1681 43.8444 22.0907C43.7932 23.3208 43.742 24.5253 43.8188 25.781C43.8444 26.0116 43.742 26.1141 43.6396 26.191C43.6396 26.3704 43.6652 26.5498 43.6652 26.7292C43.6908 27.2161 43.7164 27.5749 43.6652 28.0874C43.7932 28.1387 43.8957 28.2156 43.9469 28.3181C44.0237 28.4206 44.0749 28.5487 44.0749 28.7025C44.0749 28.8562 44.0493 28.9844 43.9469 29.1125C43.8188 29.2663 43.614 29.3944 43.3066 29.3431C43.2298 29.4713 43.153 29.5738 42.9481 29.5994H42.8969C42.7432 29.5738 42.6408 29.5225 42.5639 29.4713L42.5383 29.4457C42.4359 29.4457 42.2566 29.4713 42.1286 29.4457C41.8725 29.42 41.6164 29.3175 41.5395 29.0356V28.9844C41.5139 28.6512 41.6676 28.5487 41.8469 28.4718C41.8469 28.3949 41.8469 28.2924 41.8469 28.2156C41.8212 28.0618 41.7956 27.908 41.7444 27.7543V27.703C41.7188 27.5236 41.77 27.4211 41.8212 27.3442C41.77 27.1905 41.77 27.0623 41.77 26.9342C41.77 26.8317 41.77 26.7036 41.7188 26.6267L41.6932 26.4473C42.0005 24.7047 42.0261 22.6801 42.0261 20.7068V20.143C42.0261 19.8355 42.0517 19.4255 42.0517 18.9642C42.0773 18.6054 42.0773 18.2466 42.103 17.8879C41.8469 17.8879 41.5651 17.8622 41.2578 17.8879C40.8481 17.8879 40.4127 17.9135 40.0798 17.9391C40.0542 18.016 40.0542 18.1185 40.0542 18.1954C40.0542 18.3491 40.1054 18.4773 40.1822 18.6054L39.9005 18.9642C39.9261 19.0923 39.9261 19.2205 39.8237 19.3999L39.67 19.528C39.1578 19.6818 39.0041 19.3486 38.9017 19.0411C38.8761 19.0155 38.8761 18.9642 38.8505 18.9386C38.8249 18.9129 38.7993 18.8617 38.7736 18.8104C38.5175 18.3748 38.2358 17.8622 38.2358 17.1447L38.4663 16.8628C38.6968 16.8115 38.8249 16.8628 38.9273 16.9397L39.0554 16.8628C39.2346 16.8628 39.3115 16.914 39.3371 17.0165C40.6688 17.0422 41.8212 17.0422 42.9993 16.9909C44.203 16.9397 45.381 16.8628 46.764 16.7346C46.8152 16.709 46.8408 16.709 46.892 16.6834C46.9176 16.6578 46.9689 16.6578 46.9689 16.6321H47.3274C47.3018 16.4784 47.3274 16.504 47.3786 16.5296ZM50.4774 23.8077C49.2994 24.474 46.9176 25.2684 47.0457 27.1392C47.1225 27.7543 47.6091 29.3175 48.1469 29.3944C48.9665 29.4969 49.4787 29.4969 49.8116 29.3944C50.6823 29.1894 50.5031 28.5743 51.4506 28.4206L51.4762 28.3949C52.014 29.625 53.8324 29.7276 54.2933 28.7025V28.4462C53.3458 27.088 52.9616 29.8557 52.808 26.6779C52.7823 25.9604 52.8592 24.6278 52.808 23.9871C52.7823 23.6283 52.347 22.3213 52.0397 21.9626C51.9116 21.8088 51.7579 21.7063 51.5275 21.5782L51.1689 21.3988H51.1433C50.5799 21.1425 49.9909 21.1169 49.4787 21.1937C48.4286 21.3731 47.942 21.8601 47.2506 22.4238L47.1481 22.5776L47.1225 22.7057C47.0201 23.167 46.9433 23.5514 47.353 23.9102L47.5323 23.9871C47.6347 23.9871 47.7372 23.9871 47.8396 23.9615C47.942 23.9358 48.0445 23.9358 48.1469 23.9615L48.3774 23.8333H48.403C48.3774 23.8333 48.3774 23.859 48.3774 23.859V23.8333L48.4286 23.8077L48.4542 23.8333L48.4286 23.8077L48.5055 23.7821C48.5055 23.7821 48.4799 23.8077 48.4799 23.8333L48.6591 23.7052C48.736 23.5258 48.7616 23.3464 48.8128 23.1927C48.864 22.9364 48.9152 22.7057 49.1201 22.552C49.2482 22.4495 49.4274 22.3982 49.6323 22.3726C50.4262 22.2445 51.1945 22.8083 51.2714 23.6027C50.9384 23.5514 50.7079 23.6796 50.4774 23.8077ZM48.4542 23.8077C48.4799 23.7821 48.4542 23.8077 48.4542 23.8077V23.8077ZM48.4542 23.8077C48.4799 23.8077 48.4799 23.8077 48.4542 23.8077C48.4542 23.8077 48.4286 23.8077 48.403 23.8333L48.4542 23.8077ZM51.1945 24.8328L51.2201 24.679C50.3238 25.5503 47.6091 26.2423 49.2738 28.0362C49.914 28.7025 50.4262 27.8824 51.0153 27.5493H51.0409C51.1177 27.5236 51.1945 27.498 51.2714 27.4724C51.3226 27.4724 51.3482 27.498 51.3738 27.498C51.3738 27.4467 51.3738 27.3699 51.3482 27.3186C51.1433 26.3448 51.0409 26.0629 51.1945 24.8328ZM61.5922 17.811L61.6434 17.8366L61.8227 18.221C61.7459 18.4004 61.6434 18.5029 61.541 18.6054C61.4642 18.6823 61.3873 18.7848 61.3617 18.8873L61.1312 19.118C61.0544 19.1436 60.952 19.2205 60.8751 19.323C60.7471 19.4511 60.6446 19.5536 60.4398 19.6561C60.2349 19.733 60.03 19.7586 59.8251 19.7843C59.6202 19.8099 59.4154 19.8355 59.2361 19.938L59.0824 19.9893C58.8775 19.9636 58.7239 19.8868 58.5702 19.7843C58.4934 19.733 58.391 19.6561 58.2885 19.6305C58.058 19.5792 57.7763 19.5536 57.5202 19.5536C57.2641 19.5536 57.0336 19.6049 56.9056 19.6561C56.8031 19.7074 56.6751 19.8099 56.547 19.938C56.419 20.0918 56.3165 20.2455 56.2653 20.3737C56.2653 20.3737 56.2653 20.3993 56.2653 20.4249C56.2653 20.5274 56.2653 20.63 56.2141 20.7325V20.7581C56.1117 21.0912 55.958 21.6294 55.9324 21.9626C55.9324 22.0651 55.9324 22.1676 55.9324 22.2957C55.9324 22.347 55.9324 22.4238 55.9324 22.4751C56.1117 22.2701 56.3421 22.0907 56.5982 21.9369C56.5982 21.9369 56.5982 21.9369 56.5982 21.9113C56.6239 21.8088 56.6495 21.7319 56.7263 21.655L56.88 21.5782C57.0336 21.5525 57.2129 21.5269 57.3665 21.4756C57.7251 21.3988 58.058 21.3219 58.4422 21.3731C59.6971 21.5013 60.6959 22.3726 61.4898 23.3208L61.5666 23.4746C61.5922 23.6796 61.6434 23.9358 61.6946 24.2177C61.8227 24.8584 61.9764 25.6016 61.8995 26.0373C61.8483 26.2679 61.7203 26.5242 61.5922 26.7804C61.541 26.9086 61.4642 27.0111 61.4385 27.1136L61.3873 27.2161C61.2337 27.5749 61.1056 27.9337 60.8495 28.2668C59.7995 29.6507 59.1336 29.8813 57.6739 29.8044C57.1873 29.7788 56.7263 29.7532 56.3165 29.5482C56.0348 29.42 55.7019 29.1381 55.4202 28.8306C55.1385 28.5487 54.908 28.2156 54.8055 27.908C54.7031 27.6518 54.6263 27.2417 54.5751 26.7804C54.5238 26.3704 54.5238 25.9091 54.5494 25.5247C54.5494 25.2941 54.6263 25.1147 54.7031 24.9097C54.7543 24.7559 54.8055 24.6278 54.8312 24.4996C54.8312 24.3971 54.8312 24.2946 54.8055 24.1665C54.7799 23.9615 54.7543 23.7565 54.7799 23.4746C54.8055 23.372 54.8312 23.2952 54.8824 23.1927C54.908 23.1414 54.9336 23.0901 54.9336 23.0645C55.0104 22.8083 55.0104 22.5007 55.036 22.2188C55.0616 21.9369 55.0873 21.6294 55.1385 21.3475C55.1641 21.245 55.1385 21.2963 55.1897 21.1169C55.3177 20.5018 55.4202 19.938 55.7019 19.4255V19.3999C55.7531 19.323 55.8299 19.2717 55.9068 19.1948C55.958 19.1436 56.0092 19.0923 56.0604 19.0411C56.086 19.0155 56.1117 18.9386 56.1629 18.8617C56.2141 18.7592 56.2397 18.6823 56.3165 18.6054C56.3934 18.5029 56.547 18.4004 56.6751 18.2979C56.8543 18.1698 57.0336 18.0672 57.1104 18.016H57.1361C57.3922 17.9135 57.6995 17.9135 57.9812 17.9391C58.2629 17.9647 58.519 18.0416 58.7495 18.0929C58.8519 18.1185 58.9544 18.1698 59.0312 18.1954C59.4666 18.3491 59.9532 18.5285 60.4654 18.2979C60.5422 18.2723 60.619 18.1954 60.6959 18.1185C60.7215 18.0929 60.7471 18.0672 60.7727 18.0416C60.7727 17.9391 60.7983 17.8366 60.9263 17.7854C61.1568 17.6572 61.4385 17.7597 61.5922 17.811ZM59.1336 22.7826C57.1361 20.9631 56.3421 24.1665 56.1373 25.3966C56.1117 25.4991 56.1117 25.6016 56.1117 25.6785C56.2397 27.8824 56.88 28.5231 57.5202 28.7281C58.7239 29.1125 60.1837 27.3186 60.1837 25.6785C60.2093 24.679 59.7739 23.5002 59.1336 22.7826ZM64.1788 24.8584L64.2813 24.7047C64.5374 24.4996 65.7666 24.0127 66.1508 23.8077C66.3813 23.6796 66.6118 23.5258 66.9447 23.5514C66.8679 22.757 66.0996 22.1932 65.3057 22.3213C65.1264 22.347 64.9215 22.3982 64.7935 22.5264C64.5886 22.6801 64.5374 22.9108 64.4861 23.167C64.4605 23.3208 64.4093 23.5002 64.3325 23.6796L64.1532 23.8077C64.1532 23.7821 64.1788 23.7821 64.1788 23.7565L64.102 23.7821L64.1276 23.8077L64.102 23.7821L64.0508 23.8077V23.8333C64.0508 23.8333 64.0764 23.8333 64.0764 23.8077L64.0508 23.8333V23.8077L63.8203 23.9358C63.7178 23.9102 63.6154 23.9102 63.513 23.9358C63.4105 23.9358 63.3337 23.9615 63.2056 23.9615L63.0264 23.8846C62.6166 23.5514 62.6934 23.1414 62.7959 22.6801L62.8215 22.552L62.9239 22.3982C63.0008 22.3213 63.0776 22.2957 63.18 22.2701C63.2056 22.2701 63.2312 22.2445 63.2312 22.2445C63.2312 22.1163 63.2569 22.0138 63.4105 21.9369C63.8715 21.6294 64.4861 21.2963 65.152 21.1937C66.663 20.9375 67.3801 21.5525 68.0715 22.7057C68.1228 22.8083 68.174 22.8851 68.1996 23.0389C68.5581 23.6539 68.4813 26.8573 68.5837 27.7286L68.5069 27.9593C68.5069 27.9593 68.5069 27.9593 68.4813 27.9849C68.5325 28.0362 68.5837 28.0618 68.6606 28.113C68.7118 28.1643 68.7886 28.1899 68.8398 28.2412C68.8655 28.2412 68.8911 28.2412 68.9167 28.2156C69.2752 28.1387 69.7106 28.0618 69.9667 28.4206L69.9923 28.7025C69.6594 29.4457 68.9935 29.3688 68.2764 29.2663C68.1484 29.2406 68.0203 29.2406 67.8923 29.215L67.6874 29.0869C67.6362 29.01 67.585 28.9587 67.5337 28.8819C67.4057 28.7281 67.2776 28.5743 67.2008 28.3949L67.1752 28.4206C66.1252 28.5743 66.4325 29.2919 65.3057 29.42C62.3349 29.7788 62.13 26.6011 64.102 24.9097L64.1788 24.8584ZM64.1276 23.8077C64.1276 23.8077 64.1532 23.7821 64.1276 23.8077V23.8077ZM64.1276 23.8077L64.0764 23.8333C64.102 23.8077 64.1276 23.8077 64.1276 23.8077C64.1532 23.8077 64.1532 23.8077 64.1276 23.8077ZM66.8679 24.8328L66.8935 24.679C66.8167 24.7559 66.7142 24.8328 66.6374 24.9097C65.8179 25.6272 66.0227 25.1659 65.4849 25.4478C64.2044 26.1398 64.3325 29.5225 66.3557 27.7799C66.4581 27.6774 66.5606 27.6005 66.6886 27.5236H66.7142C66.791 27.498 66.8679 27.4724 66.9447 27.4467C66.9959 27.4467 67.0215 27.4724 67.0471 27.4724C67.0471 27.4211 67.0471 27.3442 67.0215 27.293C66.8167 26.3448 66.7142 26.0629 66.8679 24.8328ZM72.4509 21.4756C72.3484 21.4756 72.246 21.5013 72.1436 21.5013H72.0923C71.5545 21.245 71.0423 21.3988 70.5301 21.5525C70.3252 21.6294 70.0947 21.6807 69.8899 21.7063L69.6594 21.9882V22.2701L69.7362 22.4751C69.8386 22.5776 69.9667 22.5776 70.1203 22.6032C70.146 22.6032 70.146 22.6032 70.1716 22.6032C70.1972 22.8595 70.2484 23.0645 70.3252 23.2952C70.3508 23.4233 70.4021 23.5514 70.4021 23.6796C70.4021 23.7565 70.4021 23.8333 70.4021 23.9358C70.4021 24.1152 70.4021 24.269 70.4533 24.474C70.4789 24.6021 70.5813 24.7047 70.6582 24.8584C70.7094 24.9353 70.7606 25.0122 70.8118 25.0891L70.863 25.1659C71.1704 25.7041 71.2984 25.9348 71.8618 26.2166L72.1436 26.396L72.1692 26.4217C72.7838 26.7036 73.3984 26.5498 74.0387 26.4217C74.4228 26.3448 74.8326 26.2423 75.2168 26.2679C75.2424 26.7548 75.2168 27.1392 75.2168 27.498C75.1911 27.9849 75.1911 28.4462 75.2424 29.0356H75.2168C75.0631 29.0613 74.9094 29.1125 74.8326 29.2406L74.807 29.5225C74.8326 29.5738 74.8582 29.625 74.9094 29.6763C75.1399 29.9326 75.5241 30.0351 75.9338 30.0095C76.318 30.0095 76.7021 29.9069 76.9326 29.7788C77.0095 29.7532 77.0607 29.7019 77.1119 29.6507L77.1631 29.2919C77.0351 29.1125 76.8558 29.0613 76.6765 29.0356C76.5741 27.8312 76.6253 26.6523 76.6765 25.4478C76.7277 24.5253 76.779 23.6027 76.7534 22.6289C76.9838 22.5776 77.2143 22.5264 77.3168 22.2445V22.0907C77.2143 21.6807 76.8558 21.6294 76.4973 21.5782C76.3436 21.5525 76.2155 21.5525 76.1643 21.5013L75.8058 21.4756C75.7546 21.5269 75.6009 21.5269 75.4472 21.5269C75.396 21.5269 75.3192 21.5269 75.2424 21.5525C74.8326 21.6038 74.4997 21.7575 74.5765 22.3213L74.7814 22.552C74.935 22.6032 75.0887 22.5776 75.2168 22.552V23.1927C75.0631 23.5514 75.0887 24.0383 75.1143 24.5253C75.1143 24.7559 75.1399 24.9865 75.1399 25.1659C74.8326 25.2172 74.4741 25.2428 74.1155 25.2172C73.6801 25.1916 73.2448 25.1403 72.9631 25.0634C72.8606 24.9353 72.707 24.8328 72.5789 24.7047C72.2972 24.4484 72.0155 24.1921 71.8874 23.8333C71.8106 23.5771 71.7594 23.3208 71.7338 23.0645C71.7338 22.9364 71.7338 22.8083 71.7594 22.6801C71.9387 22.6032 71.9899 22.4495 72.0411 22.2957H72.0155H71.9899C72.1179 22.2701 72.2204 22.2701 72.3228 22.2701C72.5021 22.2701 72.6814 22.2445 72.9118 22.1932L73.1167 21.9113C73.1423 21.5269 72.8094 21.45 72.4509 21.4756ZM72.0155 22.347C72.0155 22.3726 71.9899 22.347 72.0155 22.347V22.347ZM79.8522 20.9887C80.1083 21.04 80.3644 21.1425 80.6205 21.3475L80.6973 21.6807C80.6973 21.6807 80.6973 21.6807 80.6973 21.7063C80.6973 21.7575 80.7229 21.8088 80.7229 21.9113L80.5949 22.1419L80.5693 22.1676C80.4412 22.2445 80.2875 22.347 80.1083 22.3726C80.0827 22.8083 80.0571 23.2183 80.0314 23.5771C80.0058 23.9358 80.0058 24.269 80.0058 24.6021C80.0314 24.6021 80.0571 24.5765 80.0827 24.5765L80.1851 24.5509C80.4156 24.5509 82.029 24.3459 82.1827 24.269C82.3876 24.1921 82.5668 24.1152 82.8485 24.1665C82.8742 24.1665 82.9254 24.1665 82.9766 24.1665H83.0022C83.0534 23.859 83.0278 23.5771 83.0022 23.2952C82.9766 22.9364 82.951 22.6032 83.0278 22.1676H83.0022C82.7717 22.0907 82.5412 22.0138 82.5156 21.5525L82.5924 21.3475C82.9766 20.8606 83.6425 20.9631 84.2827 21.04C84.5388 21.0656 84.7693 21.1169 84.9486 21.0912L85.2559 21.3988C85.2303 21.6294 85.2303 21.6294 85.2559 21.8344L85.0254 22.1419H84.9742C84.8461 22.1676 84.7437 22.1932 84.59 22.1932C84.5644 22.347 84.5644 22.552 84.5388 22.757C84.5388 22.8595 84.5388 22.962 84.5388 23.0645C84.5388 23.6283 84.59 24.269 84.6413 24.9097C84.6925 25.6529 84.7437 27.9849 84.8717 28.5743C84.8974 28.6256 84.8974 28.7025 84.8974 28.7794C85.1535 28.9331 85.3839 29.0613 85.2559 29.5738L84.9742 29.7788L82.9254 29.7019L82.6693 29.4713C82.5412 28.9587 82.7973 28.8306 83.0534 28.7281C83.0534 28.6256 83.079 28.4975 83.0534 28.3693C83.0534 28.3437 83.0278 28.3181 83.0278 28.2924C83.0022 28.2412 83.0022 28.2156 83.0022 28.1643C83.0022 28.1131 83.0022 28.113 83.0022 28.0618C83.0022 28.0362 83.0022 28.0105 83.0278 27.9337C83.0534 27.6774 83.0278 27.3699 82.9766 27.088C82.951 26.9342 82.951 26.7804 82.9254 26.6523C82.8998 26.3704 82.9254 26.1141 82.951 25.8579C82.951 25.6785 82.9766 25.4991 82.9766 25.3197C81.8241 25.6016 81.3632 25.1916 80.2107 25.6529C80.1339 25.6785 80.0314 25.7297 79.9546 25.7554C80.0571 26.4473 80.0827 27.1905 80.1083 27.9337C80.1083 28.1899 80.1339 28.4462 80.1339 28.7025C80.2107 28.7281 80.2875 28.7537 80.3644 28.7794C80.518 28.8562 80.6717 28.9331 80.7741 29.0869L80.8254 29.2919C80.7997 29.5225 80.6717 29.5994 80.5436 29.7019C80.518 29.7019 80.518 29.7019 80.518 29.7019L80.2107 29.8301C79.9802 29.7788 79.7241 29.7532 79.4424 29.7276C78.9814 29.6763 78.5461 29.625 78.2131 29.4713L78.0595 29.2663C78.0339 29.1638 78.0595 29.0612 78.0851 28.9844C78.1363 28.8562 78.1875 28.7794 78.29 28.7281C78.3668 28.6768 78.4436 28.6512 78.4948 28.6256C78.5204 28.5743 78.5461 28.5231 78.5717 28.4718C78.5973 28.4462 78.5973 28.4206 78.5973 28.4206C78.6229 28.0105 78.5973 27.5236 78.5461 27.0367C78.4692 26.1141 78.3924 22.1932 78.418 21.9369C78.2644 21.8601 78.1107 21.7832 78.0851 21.5013V21.5269C78.1107 20.9631 78.5461 20.9375 78.879 20.9375C78.9046 20.9375 78.9302 20.9375 78.9814 20.9375H79.007C79.3912 20.9631 79.5961 20.9631 79.8522 20.9887ZM95.1926 21.0144C95.6024 20.9887 96.0633 20.9631 96.1146 21.5269C96.1402 21.8601 95.9865 21.9369 95.8072 21.9882C95.9097 22.8851 96.0121 23.8333 96.1146 24.7815C96.2682 26.1398 96.3963 27.4724 96.5755 28.7537C96.6011 28.7537 96.6268 28.7537 96.6268 28.7537C96.9341 28.805 97.2414 28.8819 97.2414 29.3688C97.2158 29.7532 96.9341 29.7532 96.6524 29.7276C96.6268 29.7276 96.678 29.5994 96.6268 29.6763L96.4987 29.7532C96.4475 29.7788 96.3963 29.8044 96.3707 29.8044C96.345 29.8301 96.3194 29.8301 96.3194 29.8557L95.8841 29.9326C95.8585 29.9069 95.756 29.9069 95.6536 29.9069C95.4487 29.9069 95.2182 29.9069 95.0133 29.7788H94.9621C94.7316 29.8044 94.4499 29.8557 94.245 29.625L94.2194 29.2919C94.3731 29.0356 94.6292 28.9844 94.9109 28.9331C94.8853 28.805 94.8853 28.6768 94.8597 28.5487C94.7316 26.9855 94.6804 24.6021 94.5267 23.5002C94.5011 23.2695 94.4499 22.962 94.3987 22.6801C94.3731 22.4495 94.3218 22.2188 94.2706 22.0138H94.245C94.1426 22.0651 94.0145 22.1163 93.784 22.1163L93.5279 21.8857C93.5023 21.7063 93.5279 21.6038 93.5535 21.5269C93.5535 21.5013 93.5792 21.4756 93.5792 21.45L93.7328 21.1937C93.9633 21.0912 94.2194 21.0656 94.4243 21.04C94.5523 21.0144 94.6548 21.0144 94.706 20.9887L94.9365 21.0144C94.9621 21.04 95.0645 21.04 95.1926 21.0144ZM88.4315 21.1681C88.7901 21.1937 89.1486 21.2194 89.1998 21.7063L89.0974 21.9626C88.9181 22.1163 88.7901 22.1419 88.6364 22.1419C88.6364 22.3213 88.6108 22.5007 88.6108 22.6545C88.5596 23.1927 88.534 23.7052 88.6364 24.1665C88.7389 24.1409 88.8157 24.1409 88.9181 24.1152C89.6864 23.9871 90.4803 23.859 91.1206 24.1409C91.3255 24.2177 91.4791 24.3202 91.6328 24.4484C91.7865 24.5765 91.9145 24.7047 92.0938 24.9097C92.3499 25.1916 92.6572 25.6016 92.8621 26.1141C92.9901 26.4985 93.067 26.9342 93.0157 27.4211C93.0157 27.5749 92.9389 27.8312 92.8365 28.0618C92.4523 29.1381 91.1718 29.5738 90.1474 29.7788C89.6864 29.8813 87.7913 29.9838 87.4071 29.7532L87.2535 29.4457C87.2535 29.3944 87.2023 29.3688 87.1766 29.3431C87.1254 29.3175 87.0742 29.2663 87.023 29.215L86.9718 29.1125C86.9462 29.0356 86.9205 28.9587 86.8693 28.8819C86.7413 28.6 86.6132 28.2924 86.7157 27.9593L86.9462 27.7543C86.9974 27.7543 87.0486 27.7543 87.0998 27.7543C87.0998 27.703 87.0742 27.6518 87.0742 27.6005V27.5749C87.0742 27.4724 87.0742 27.3442 87.0742 27.2161C87.0742 27.088 87.0998 26.9342 87.0742 26.8317V26.8061C87.0486 26.4985 87.0486 26.191 87.0486 25.8579C87.0486 25.6016 87.0486 25.3453 87.0486 25.0891C87.0486 25.0122 87.023 24.9609 87.023 24.9097C86.9974 24.7303 86.9718 24.5253 86.9462 24.3459C86.9205 24.0127 86.9462 23.6796 86.9462 23.3464C86.9462 22.9108 86.9718 22.4751 86.8949 22.0907C86.6388 22.1163 86.3571 22.1163 86.2291 21.8601V21.6294C86.434 21.1169 86.8437 21.1425 87.3047 21.1681C87.4584 21.1681 87.5864 21.1937 87.7145 21.1681L87.7401 21.1425C87.7657 21.1425 87.7657 21.1425 87.7913 21.1425V21.1681L88.1754 21.0656C88.201 21.1425 88.3291 21.1425 88.4315 21.1681ZM89.5072 28.7794C89.9425 28.7794 90.3779 28.7794 90.7108 28.6768C91.1206 28.2412 91.0182 27.3699 90.9157 26.4985C90.7621 25.2941 90.6596 24.6021 89.2767 24.884C89.0718 24.9353 88.8669 24.9865 88.7132 25.0378C88.9181 26.1654 88.9437 27.498 88.9437 28.7794C89.0974 28.805 89.3023 28.7794 89.5072 28.7794ZM104.899 21.2963L105.078 21.3219L105.309 21.6038C105.309 21.6038 105.309 21.6294 105.334 21.655C105.411 21.8344 105.462 21.9626 105.283 22.1932L105.257 22.2188C105.104 22.347 105.001 22.3726 104.899 22.347L105.052 22.5776C105.027 22.8339 105.052 23.1414 105.078 23.4489C105.155 24.1409 105.206 25.1403 105.232 25.8579C105.257 26.6523 105.411 27.2161 105.462 28.0874C105.462 28.3181 105.488 28.5231 105.462 28.7794C105.462 28.7537 105.462 28.7025 105.488 28.7025C105.744 28.7281 105.974 28.7794 106 29.1381L105.949 29.3175C105.821 29.5225 105.59 29.5738 105.385 29.625C105.283 29.6507 105.181 29.6763 105.181 29.6763L104.796 29.8044C104.771 29.8044 104.668 29.8044 104.566 29.8301C104.284 29.8813 104.002 29.9582 103.721 29.7019L103.695 29.6763C103.644 29.5994 103.593 29.4969 103.618 29.3944C103.618 29.3175 103.644 29.2406 103.695 29.1638C103.721 29.1125 103.772 29.0612 103.849 29.01C103.849 28.7537 103.823 28.4975 103.823 28.2156C103.798 27.8312 103.772 27.3955 103.721 26.9342C103.67 26.4729 103.644 25.986 103.644 25.4991C103.618 25.0122 103.593 24.5509 103.567 24.064C103.49 24.1665 103.413 24.2946 103.337 24.3971C103.285 24.4996 103.209 24.5765 103.183 24.6278L103.157 24.679C102.901 25.0378 102.62 25.4735 102.261 25.8066C102.133 26.1398 101.954 26.396 101.749 26.6523C101.493 26.9855 100.827 27.8312 100.699 28.1387C100.673 28.2156 100.673 28.3181 100.648 28.4206C100.878 28.3437 101.057 28.3693 101.16 28.6256C101.288 28.805 101.262 28.9331 101.109 29.0613C101.057 29.1125 101.006 29.1381 100.955 29.1381C100.955 29.1894 100.929 29.2663 100.904 29.3431L100.699 29.5225C100.673 29.5225 100.571 29.5482 100.468 29.5738C100.007 29.6763 99.5719 29.7788 99.0341 29.7276L98.778 29.5225C98.7524 29.4713 98.7524 29.42 98.7524 29.3944C98.7268 29.3944 98.7268 29.3688 98.7012 29.3688L98.5475 29.0613C98.5987 28.7537 98.778 28.6768 98.9829 28.6256C98.906 27.1648 98.8036 25.7041 98.6756 24.2434C98.6243 23.6796 98.5987 23.1158 98.5475 22.5264C98.3682 22.4495 98.1634 22.3982 98.0865 22.1419L98.0609 22.0138C98.189 21.1681 98.8548 21.2194 99.5719 21.245C99.828 21.2706 100.11 21.2706 100.315 21.2194L100.673 21.45C100.776 22.1163 100.417 22.2445 100.033 22.3982C100.033 22.7314 100.084 23.0389 100.161 23.3464C100.212 23.6027 100.263 23.8846 100.289 24.1665C100.315 24.5253 100.315 24.8584 100.289 25.2172C100.289 25.781 100.289 26.3704 100.366 26.9598C100.596 26.7036 100.776 26.3448 100.98 26.0116C101.262 25.5247 101.544 25.0634 101.928 24.7047C102.184 24.1921 102.44 23.7821 102.722 23.372C102.773 23.2695 102.85 23.167 102.927 23.0645C103.106 22.8083 103.311 22.5264 103.362 22.1932H103.337C103.132 22.1163 102.952 22.0394 102.927 21.7063L102.978 21.5269C103.413 21.0144 104.207 21.1681 104.899 21.2963ZM103.516 18.6567L103.644 18.7592C104.463 19.7586 102.594 20.8862 101.954 20.9118C101.595 20.9375 101.237 20.8093 100.904 20.7068C100.571 20.6043 99.5719 20.1687 99.5207 19.8355C99.4951 19.6818 99.5207 19.528 99.5719 19.3999C99.6231 19.2717 99.7 19.118 99.8024 19.0154C100.11 18.6823 100.571 18.5542 101.006 18.9642L101.083 19.2205C101.057 19.3486 101.083 19.4255 101.109 19.5024C101.134 19.5792 101.211 19.6305 101.288 19.6561C101.39 19.7074 101.518 19.7074 101.646 19.7074C101.8 19.7074 101.954 19.6561 102.082 19.5792C102.107 19.2717 102.235 18.9386 102.415 18.7336C102.491 18.6567 102.568 18.5798 102.671 18.5285C102.927 18.4004 103.285 18.5798 103.516 18.6567Z" fill="#DFDAC7"/>
<path fill-rule="evenodd" clip-rule="evenodd" d="M81.2863 43.2328C81.1327 43.079 80.979 42.874 80.851 42.6433C80.7229 42.4127 80.6205 42.1564 80.5692 41.8489C80.5436 41.6951 80.5436 41.5414 80.5692 41.362C80.5692 41.2338 80.5692 41.1057 80.5692 40.9776C80.5436 40.7982 80.5692 40.8494 80.5692 40.8238C80.5436 40.4138 80.4924 39.9781 80.6461 39.44C80.6973 39.2349 80.8253 38.953 80.9022 38.748C80.9278 38.7224 80.9278 38.6968 80.9534 38.6455C81.6192 36.8516 83.3351 34.0583 85.5888 35.1602C85.8193 35.2884 86.0498 35.4165 86.2035 35.4934C86.4083 35.6215 86.6388 35.8009 86.8693 35.9547C87.0742 36.1084 87.2535 36.2622 87.4071 36.416L87.4583 36.4928C87.7401 37.031 88.0218 37.6461 88.201 38.3124C88.4059 39.0043 88.5084 39.7475 88.4315 40.5419C88.3803 40.9776 88.2266 41.3876 88.0986 41.772C87.9449 42.182 87.7913 42.5665 87.7913 42.9509L87.7144 43.1559C87.6376 43.2328 87.5864 43.3096 87.5096 43.3865C86.8181 44.2322 85.3327 45.0266 84.1546 44.8216C83.9242 44.796 83.7193 44.7448 83.54 44.796L83.2839 44.7448C82.618 44.2066 81.9778 44.0528 81.2863 43.2328ZM85.1534 36.0828C84.9742 35.9547 84.8205 35.8522 84.6412 35.8522C84.5388 35.8522 84.462 35.9034 84.3595 35.9803C84.2315 36.0572 84.0778 36.1597 83.8985 36.1853C83.6424 36.4672 83.3863 36.7491 83.1302 37.0566L82.8741 37.3385C82.4388 39.0812 82.0546 43.3609 84.2827 43.6684C84.6412 43.7197 85.051 43.6684 85.4864 43.6172C85.8193 43.284 86.1266 42.9252 86.3571 42.4639C87.2535 40.7469 86.4596 36.9798 85.1534 36.0828ZM66.7654 41.3364C66.7398 41.2082 66.7142 41.0801 66.6886 40.952C66.663 40.7982 66.6886 40.6444 66.6886 40.465C66.6886 40.3113 66.7142 40.1575 66.6886 39.9781C66.6374 39.1324 66.6117 38.0305 66.6374 36.9798C66.6374 36.826 67.0983 32.6232 66.9959 32.2644C67.0215 32.2131 67.0215 32.1619 67.0471 32.1106C67.0471 32.0594 67.0727 32.0337 67.0727 32.0081L66.9959 31.7262C66.9703 31.7006 66.9703 31.675 66.9447 31.6237C66.8935 31.4956 66.8422 31.3674 66.6886 31.2906C66.33 31.1112 66.1508 31.2137 65.9971 31.3418C65.9715 31.3418 65.9715 31.3674 65.9459 31.3674C65.9203 31.3674 65.8691 31.3674 65.8434 31.3418C65.4593 31.2649 63.1032 31.4187 62.7446 31.4187C62.4885 31.4187 62.258 31.4187 62.0532 31.4699L61.8995 31.5725C61.7971 31.7006 61.669 31.8287 61.541 31.9312L61.4641 32.2388C61.4641 32.2388 61.1824 34.7758 61.1568 35.1859C61.1568 35.4165 61.1056 35.6472 61.0544 35.8778C61.0031 36.1084 60.9263 36.3391 60.8751 36.5697C60.7726 36.9285 60.6702 37.2873 60.619 37.6717C60.5934 37.8255 60.5934 37.9023 60.5678 37.9792C60.5678 38.0561 60.5422 38.1074 60.5166 38.1842V38.2099C60.3629 39.0299 59.9787 40.1575 59.6202 40.9776C59.5434 41.157 59.4409 41.362 59.3129 41.567C59.108 41.8745 58.9543 42.1052 58.7751 42.2589C58.5958 42.3871 58.3909 42.4639 58.058 42.4639C57.8531 42.4639 57.6482 42.4383 57.4177 42.4127C57.0336 42.3614 56.6238 42.2846 56.2141 42.4383L56.0092 42.7202C56.0092 42.7715 55.958 42.8227 55.9067 42.8996C55.8043 43.0277 55.7019 43.1559 55.6762 43.3609C55.625 43.5403 55.6762 43.6428 55.7275 43.7453C55.7275 43.7709 55.7531 43.7709 55.7531 43.7709V43.7966C55.7787 44.0528 55.7531 44.3603 55.7275 44.6422C55.7019 44.9498 55.6762 45.2317 55.7019 45.4879H56.2653C56.2653 45.4111 56.3421 45.3598 56.3933 45.3085C56.4702 45.2317 56.547 45.1548 56.5982 45.0523L56.6238 45.001C56.7007 44.7704 56.8031 44.5141 56.9311 44.2835C57.0336 44.1041 57.1616 43.9247 57.3153 43.8222C57.4433 43.7197 60.2092 43.694 60.4653 43.6684C60.6958 43.6428 60.9519 43.6172 61.208 43.5915C62.3605 43.5403 63.4873 43.6172 64.5629 43.5915C66.0483 43.5403 64.5629 43.9247 66.8422 43.6172C66.8935 43.6172 66.9447 43.5915 67.0215 43.5915C67.0983 43.6684 67.124 43.8734 67.1496 44.0785C67.2008 44.4116 67.3032 45.5392 67.713 45.5648H67.7642C67.8154 45.5648 67.8666 45.5392 67.9179 45.5392C67.9435 45.5392 67.9691 45.5136 68.0715 45.5648L68.4557 45.3598C68.5069 45.1292 68.5581 44.8985 68.6093 44.6679C68.6606 44.4372 68.7118 44.2066 68.763 43.9759C69.0447 44.0785 69.3264 44.0272 69.6081 44.0016C69.7618 43.9759 69.9411 43.9503 70.0435 43.9759H70.1715C70.3508 43.9247 70.402 43.8478 70.4789 43.7453H70.5045C71.452 43.4634 71.6825 42.7202 72.3996 42.2846L72.5277 42.1052C72.6301 41.7208 72.7582 41.3876 72.8862 41.0288C73.0143 40.7213 73.1423 40.4394 73.296 40.1319C73.3728 40.0806 73.4496 40.0294 73.5265 39.9781C73.5777 39.9525 73.6033 39.9269 73.6545 39.9012C73.6801 39.9012 73.6801 39.9269 73.7057 39.9269C73.7057 40.26 73.7313 40.5932 73.7313 40.9263C73.757 41.7976 73.7826 42.5921 73.8594 43.2584H73.8082C73.5009 43.2584 73.1935 43.2584 73.0399 43.5659L73.0143 43.7453C73.1167 44.2066 73.424 44.2066 73.7057 44.2066C73.7826 44.2066 73.8594 44.2066 73.8594 44.2066H74.1667C74.2435 44.1553 74.5253 44.1553 74.807 44.1553C75.0887 44.1553 75.3448 44.1553 75.5497 44.1041C75.8314 44.0272 75.985 43.8734 75.9082 43.5659C75.8058 43.2328 75.5497 43.2071 75.268 43.2071C75.1911 43.2071 75.1399 43.2328 75.1143 43.2328C75.0887 42.8484 75.1143 42.3871 75.1399 41.8745C75.1655 41.2595 75.1911 40.6188 75.1399 40.1319L75.1655 40.1063C75.2423 40.0294 75.3192 39.9781 75.396 39.9269C75.4728 40.0038 75.5753 40.055 75.7033 40.0806C75.7545 40.1831 75.8058 40.26 75.8826 40.3369C75.985 40.465 76.0619 40.5932 76.1387 40.7726C76.1899 40.8751 76.1899 41.0288 76.1899 41.1826C76.1899 41.3364 76.2155 41.5157 76.2667 41.6951C76.446 42.3102 76.907 42.7458 77.3168 43.1815C77.5216 43.3865 77.7265 43.5915 77.8802 43.8222L78.0851 43.9503C78.3412 43.9759 78.5973 44.0272 78.8534 44.0785C79.2887 44.1553 79.6985 44.2322 80.1083 44.2066L80.3644 44.0016C80.5436 43.4378 80.1339 43.284 79.8778 43.2071C79.8522 43.2071 79.8521 43.2071 79.8521 43.2071C79.6985 43.1559 79.5192 43.1559 79.3656 43.1559C79.2375 43.1559 79.1095 43.1559 79.0326 43.1303H79.007C78.9046 43.1046 78.8534 43.0021 78.8021 42.9252C78.7509 42.8484 78.7253 42.7971 78.6485 42.7202C78.5973 42.6433 78.546 42.6177 78.4948 42.5921L78.5204 42.6177C78.546 42.6433 78.4948 42.5921 78.4948 42.5921C78.1619 42.1052 77.9314 41.5414 77.7265 40.952C77.5729 40.5163 77.3936 40.055 77.1887 39.6193L77.0863 39.5168C76.9326 39.4143 76.7789 39.3118 76.6253 39.2093C76.5741 39.1837 76.5228 39.1324 76.446 39.1068C76.4972 39.0556 76.5485 39.0043 76.5997 38.9274C77.035 38.4661 77.4448 38.0048 77.5729 37.236C77.7009 37.1335 77.829 37.031 77.9826 36.9541C78.0594 37.1335 78.1619 37.2617 78.3155 37.3385C78.4436 37.4154 78.5973 37.441 78.7253 37.441C78.8534 37.441 79.007 37.3898 79.1351 37.3385C80.057 36.8516 79.7753 35.314 77.8546 35.9547C77.4192 36.1084 76.6253 36.6722 76.3692 37.0823C76.2411 37.2617 76.1899 37.4667 76.1131 37.6717C76.0875 37.7742 76.0362 37.8767 76.0106 37.9792C75.857 38.2867 75.7033 38.543 75.4984 38.7737C75.396 38.8762 75.2936 38.9787 75.1655 39.0555C75.1911 38.6455 75.1911 38.2355 75.1655 37.8255C75.1655 37.3642 75.1399 36.9029 75.1911 36.4672C75.2167 36.4672 75.268 36.4672 75.3192 36.4672C75.5753 36.4672 75.8314 36.4672 75.9594 36.211L75.985 36.1341C76.0619 35.7753 75.9082 35.6472 75.6521 35.5959C74.9862 35.4678 74.4484 35.5446 73.757 35.6472C73.7057 35.6472 73.6289 35.6472 73.5777 35.6472C73.5009 35.6472 73.424 35.6472 73.3472 35.6472C73.0143 35.6728 72.7582 35.8009 72.7838 36.2366L72.835 36.3647C73.0143 36.6722 73.296 36.5954 73.6033 36.5185C73.6545 36.5185 73.6801 36.4928 73.7313 36.4928C73.7313 36.7491 73.7313 37.0054 73.7313 37.2617C73.7313 37.7998 73.7313 38.3124 73.6801 38.8762C73.6289 38.8505 73.5777 38.8249 73.5265 38.7993C73.3984 38.7224 73.2704 38.6711 73.1167 38.6199C73.0399 38.4149 72.9374 38.2099 72.7838 37.9792L72.7582 37.9536L72.7069 37.8511C72.6301 37.7486 72.5789 37.6204 72.4765 37.441C70.7094 34.5964 68.5069 35.724 69.0191 36.9798C69.0959 37.1592 69.224 37.2873 69.4032 37.3385C69.4545 37.3642 69.5313 37.3642 69.5825 37.3898C69.9411 37.4154 70.1203 37.1848 70.3252 36.9798C70.402 36.9029 70.4789 36.8004 70.5045 36.8004C70.5557 36.8004 70.6325 36.8773 70.735 36.9798C70.863 37.1079 70.9911 37.2873 71.0679 37.3642C71.2728 37.6204 71.4264 37.9023 71.6057 38.1842C71.8106 38.543 72.0155 38.9018 72.2972 39.2093C71.785 39.6193 71.5545 40.3113 71.3496 41.0032C71.2472 41.2851 71.1703 41.5926 71.0679 41.8489C70.8886 41.977 70.7094 42.1308 70.5301 42.2846C70.1459 42.6177 69.7874 42.9252 69.2496 43.079C69.1728 43.0534 69.0959 43.0534 69.0191 43.0534C69.0191 42.8996 68.9935 42.7715 68.7886 42.6946H68.763C68.5325 42.6433 68.1996 42.6433 67.8666 42.6433C66.5605 42.4639 67.0471 42.4896 66.7654 41.3364ZM64.9983 32.3156C65.0495 32.3156 65.1008 32.29 65.152 32.29C65.152 32.9563 65.152 33.597 65.1264 34.2889C65.0751 35.4934 64.9471 39.7475 64.7934 40.9776C64.7422 41.4389 64.6654 41.9258 64.6654 42.4639C64.0763 42.4896 63.6154 42.4896 63.18 42.5152C62.1044 42.5665 61.2849 42.5921 60.0043 42.5665V42.5408C60.158 42.3614 60.2604 42.1308 60.3885 41.9258C60.4653 41.7976 60.5422 41.6695 60.619 41.5414C60.7214 41.362 60.8239 41.2082 60.9007 41.0288C60.9775 40.8494 61.0544 40.6444 61.1568 40.3882C61.2336 40.1063 61.3361 39.8244 61.4129 39.4912C61.4897 39.1837 61.5666 38.8505 61.6178 38.5174C61.6434 38.2611 61.669 38.0561 61.6946 37.8255C61.7202 37.6204 61.7202 37.4154 61.7714 37.1848C61.8227 36.8773 61.9251 36.5441 62.0275 36.211C62.13 35.9034 62.2324 35.5959 62.2836 35.2884C62.3093 35.109 62.3093 34.904 62.3349 34.7246C62.3605 34.4171 62.3605 34.1352 62.4629 33.8789C62.4885 33.8276 62.5141 33.7764 62.5397 33.7251C62.6166 33.5714 62.6934 33.4176 62.719 33.187C62.719 33.0845 62.719 32.9563 62.719 32.8538C62.719 32.7 62.719 32.5719 62.7702 32.4694C63.0776 32.495 63.3593 32.495 63.6666 32.4694C63.9739 32.4438 64.3068 32.4438 64.6142 32.495L64.8703 32.4181C64.8447 32.3669 64.9215 32.3413 64.9983 32.3156ZM70.4533 43.6428H70.5045C70.4789 43.6172 70.402 43.6428 70.4533 43.6428Z" fill="#DFDAC7"/>
</g>
<defs>
<clipPath id="clip0">
<rect width="106" height="47" fill="white"/>
</clipPath>
</defs>
</svg>
