<svg width="90" height="32" viewBox="0 0 90 32" fill="none" xmlns="http://www.w3.org/2000/svg">
<path d="M36.0122 24.5547V9.88187H46.0736C47.5408 9.88187 48.6937 10.2103 49.5322 10.867C50.3846 11.5099 50.8108 12.4112 50.8108 13.571C50.8108 14.3536 50.5942 15.0523 50.161 15.6672C49.7418 16.268 49.1199 16.7012 48.2954 16.9667C49.3016 17.2183 50.0841 17.6585 50.6431 18.2873C51.2021 18.9161 51.4815 19.6987 51.4815 20.6349C51.4815 21.8507 51.0483 22.8079 50.1819 23.5066C49.3156 24.2053 48.0509 24.5547 46.388 24.5547H36.0122ZM45.6753 11.5588H38.1922V16.2541H45.7172C46.5557 16.2541 47.2404 16.0445 47.7714 15.6252C48.3164 15.192 48.5889 14.6051 48.5889 13.8645C48.5889 13.1099 48.3374 12.537 47.8343 12.1457C47.3312 11.7544 46.6116 11.5588 45.6753 11.5588ZM45.9268 17.9519H38.1922V22.8778H46.0107C47.1007 22.8778 47.8972 22.6682 48.4002 22.249C48.9173 21.8158 49.1758 21.2219 49.1758 20.4673C49.1758 19.6428 48.8824 19.0209 48.2954 18.6017C47.7225 18.1685 46.933 17.9519 45.9268 17.9519ZM60.5335 24.5547V11.6845H53.5953V9.88187H69.7354V11.6845H62.7554V24.5547H60.5335ZM73.2409 24.5547V9.88187H82.6524C84.3573 9.88187 85.6569 10.2801 86.5512 11.0767C87.4595 11.8732 87.9137 12.9911 87.9137 14.4304C87.9137 15.772 87.4805 16.834 86.6141 17.6165C85.7477 18.3991 84.511 18.8113 82.904 18.8533L88.291 24.5547H85.4403L80.158 18.9581H75.4627V24.5547H73.2409ZM82.2751 11.6426H75.4627V17.1973H82.2751C83.3651 17.1973 84.2036 16.9598 84.7905 16.4846C85.3774 16.0095 85.6708 15.3248 85.6708 14.4304C85.6708 12.5719 84.5389 11.6426 82.2751 11.6426Z" fill="black"/>
<path fill-rule="evenodd" clip-rule="evenodd" d="M12.7685 1.14626C13.3492 0.818435 14.0591 0.818435 14.6398 1.14626L20.5402 4.47713C21.4557 4.99389 21.7788 6.15489 21.2621 7.0703C20.7453 7.98571 19.5843 8.30887 18.6689 7.79211L13.7042 4.98944L5.77516 9.46549L14.6398 14.4698C15.2377 14.8073 15.6075 15.4407 15.6075 16.1272V26.1906L23.6016 21.6778V12.7257L20.5402 14.4539C19.6248 14.9706 18.4638 14.6475 17.9471 13.732C17.4303 12.8166 17.7535 11.6556 18.6689 11.1389L24.5693 7.80801C25.1586 7.47534 25.8802 7.48058 26.4646 7.82176C27.049 8.16295 27.4083 8.78878 27.4083 9.46549V22.789C27.4083 23.4756 27.0386 24.109 26.4407 24.4465L14.6398 31.1082C14.0591 31.436 13.3492 31.436 12.7685 31.1082L0.967677 24.4465C0.369778 24.109 0 23.4756 0 22.789V9.46549C0 8.7789 0.369778 8.14553 0.967677 7.80801L12.7685 1.14626ZM11.8008 26.1906V17.2385L3.80671 12.7257V21.6778L11.8008 26.1906Z" fill="#FF9922"/>
</svg>
